<?xml version="1.0" encoding="UTF-8" standalone="no"?>
<svg width="123px" height="123px" viewBox="0 0 123 123" version="1.1" xmlns="http://www.w3.org/2000/svg" xmlns:xlink="http://www.w3.org/1999/xlink">
    <!-- Generator: Sketch 41.2 (35397) - http://www.bohemiancoding.com/sketch -->
    <title>team</title>
    <desc>Created with Sketch.</desc>
    <defs></defs>
    <g id="About-Us" stroke="none" stroke-width="1" fill="none" fill-rule="evenodd">
        <g id="Desktop-HD" transform="translate(-189.000000, -184.000000)">
            <g id="team" transform="translate(190.000000, 185.000000)">
                <g id="Layer_1">
                    <circle id="Oval" stroke="#EF3E42" stroke-width="2" fill-opacity="0.3" fill="#EF3E42" cx="60.5" cy="60.5" r="60.5"></circle>
                    <g id="Group" transform="translate(14.000000, 28.000000)" stroke="#FFFFFF" stroke-width="1.541">
                        <path d="M63.3,25.5 C63.6,24.8 63.9,24 64.1,23.2" id="Shape"></path>
                        <path d="M39.1,34.7 C41.4,35.8 44,36.4 46.8,36.4 C49.6,36.4 52.2,35.8 54.5,34.7" id="Shape"></path>
                        <path d="M29.5,23.3 C29.7,24.1 30,24.8 30.3,25.6" id="Shape"></path>
                        <path d="M61.7,8.6 C58.5,3.8 53,0.6 46.8,0.6 C40.6,0.6 35.1,3.8 31.9,8.6" id="Shape"></path>
                        <path d="M23.2,42.4 C20.3,46.9 18.5,52.2 18.5,57.9 C18.5,64.7 29.2,68.5 41.3,69.4 L44.9,44.7 L43.4,44.7 C42.8,44.7 42.3,44.2 42.3,43.6 L42.3,39.4 C42.3,39.3 42.3,39.2 42.4,39.1 C41.7,38.9 40.9,38.7 40.2,38.5" id="Shape"></path>
                        <path d="M53.4,38.5 C52.7,38.7 51.9,39 51.2,39.1 C51.2,39.2 51.3,39.3 51.3,39.4 L51.3,43.6 C51.3,44.2 50.8,44.7 50.2,44.7 L48.7,44.7 L52.3,69.4 C64.3,68.5 75,64.7 75,57.9 C75,52.2 73.3,46.9 70.4,42.4" id="Shape"></path>
                        <path d="M64.1,23.2 C66.4,25.5 69.6,27 73.1,27 C80.1,27 85.9,21.3 85.9,14.2 C85.9,7.2 80.2,1.4 73.1,1.4 C68.1,1.4 63.8,4.3 61.7,8.5 C63.6,11.3 64.7,14.8 64.7,18.4 C64.7,20.1 64.5,21.7 64.1,23.2 L64.1,23.2 Z" id="Shape"></path>
                        <path d="M64.1,23.2 C64.5,21.7 64.7,20.1 64.7,18.5 C64.7,14.8 63.6,11.4 61.7,8.6" id="Shape"></path>
                        <path d="M53.4,38.5 C56.4,37.5 59.1,35.9 61.4,33.7 C65,35.9 68.2,38.9 70.5,42.5 L71.9,33 L70.8,33 C70.4,33 70,32.6 70,32.2 L70,29.2 L70,29 C67.5,28.5 65.2,27.3 63.3,25.6 C61.6,29.6 58.4,32.9 54.5,34.8" id="Shape"></path>
                        <path d="M54.5,34.7 C54,35.9 53.6,37.2 53.4,38.5" id="Shape"></path>
                        <path d="M83.5,25 C81.5,26.9 79,28.3 76.2,28.9 L76.2,29.1 L76.2,32.1 C76.2,32.5 75.8,32.9 75.4,32.9 L74.3,32.9 L77,50.5 C85.6,49.9 93.2,47.1 93.2,42.3 C93.2,35 89.3,28.6 83.5,25 L83.5,25 Z" id="Shape"></path>
                        <path d="M31.9,8.5 C29.8,4.3 25.5,1.5 20.5,1.5 C13.5,1.5 7.7,7.2 7.7,14.3 C7.7,21.3 13.4,27.1 20.5,27.1 C24,27.1 27.2,25.7 29.5,23.4 C29.1,21.9 28.8,20.3 28.8,18.6 C28.8,14.8 30,11.4 31.9,8.5 L31.9,8.5 Z" id="Shape"></path>
                        <path d="M18.1,32.9 C17.7,32.9 17.3,32.5 17.3,32.1 L17.3,29.1 L17.3,28.9 C14.5,28.3 12,26.9 10,25 C4.2,28.5 0.3,34.9 0.3,42.2 C0.3,47 7.9,49.8 16.5,50.4 L19.1,32.9 L18.1,32.9 L18.1,32.9 Z" id="Shape"></path>
                        <path d="M30.3,25.5 C28.4,27.1 26.1,28.3 23.6,28.8 L23.6,29 L23.6,32 C23.6,32.4 23.2,32.8 22.8,32.8 L21.7,32.8 L23.1,42.2 C25.4,38.7 28.5,35.7 32.1,33.5 C34.4,35.7 37.1,37.3 40.1,38.3 C39.9,37 39.5,35.7 39,34.5 C35.2,32.9 32,29.6 30.3,25.5 L30.3,25.5 Z" id="Shape"></path>
                    </g>
                </g>
            </g>
        </g>
    </g>
</svg>