<?xml version="1.0" encoding="UTF-8" standalone="no"?>
<svg width="74px" height="74px" viewBox="0 0 74 74" version="1.1" xmlns="http://www.w3.org/2000/svg" xmlns:xlink="http://www.w3.org/1999/xlink">
    <!-- Generator: Sketch 41.2 (35397) - http://www.bohemiancoding.com/sketch -->
    <title>Group 5</title>
    <desc>Created with Sketch.</desc>
    <defs>
        <polygon id="path-1" points="36.86547 18.4327653 36.86547 36.86547 0 36.86547 0 18.4327653 0 6.05612834e-05 36.86547 6.05612834e-05"></polygon>
    </defs>
    <g id="Helpful-Tips" stroke="none" stroke-width="1" fill="none" fill-rule="evenodd">
        <g id="Desktop-HD" transform="translate(-204.000000, -1718.000000)">
            <g id="Group-3" transform="translate(205.000000, 1716.000000)">
                <g id="Group-5" transform="translate(0.000000, 3.000000)">
                    <g id="Group-2" stroke-opacity="0.85" stroke="#231F20" stroke-width="2" fill="#231F20" fill-opacity="0.7">
                        <g id="Group-2-Copy-2">
                            <circle id="Oval-Copy" cx="36" cy="36" r="36"></circle>
                        </g>
                    </g>
                    <g id="Page-1" transform="translate(17.402344, 18.000000)">
                        <mask id="mask-2" fill="white">
                            <use xlink:href="#path-1"></use>
                        </mask>
                        <g id="Clip-2"></g>
                        <path d="M36.86547,29.1155031 C36.86547,29.5860643 36.7776561,30.2019725 36.6032396,30.961411 C36.4288231,31.7202439 36.2459281,32.3185894 36.0539488,32.7552362 C35.687553,33.6279243 34.62228,34.5533007 32.8599467,35.5301542 C31.2187359,36.4210107 29.5950879,36.8655305 27.9896083,36.8655305 C27.5178359,36.8655305 27.0599926,36.8352499 26.6148672,36.774083 C26.1697417,36.7129161 25.6682943,36.6039058 25.1093137,36.4464465 C24.5509386,36.2895927 24.1360938,36.1630197 23.8659905,36.0673328 C23.594676,35.9710404 23.1107913,35.791779 22.4125197,35.5301542 C21.7142481,35.2685295 21.2866855,35.1110702 21.1298317,35.0589875 C19.4183699,34.4479241 17.8916199,33.7236112 16.547765,32.885443 C14.3130537,31.5070682 12.0050632,29.6260347 9.62197669,27.2429482 C7.23949581,24.861073 5.35846235,22.5524768 3.98008754,20.3177655 C3.14191938,18.9739106 2.41760643,17.4465551 1.80654308,15.7356988 C1.75385476,15.5788451 1.59700104,15.1506768 1.3353763,14.4530108 C1.07314594,13.7553448 0.894490154,13.270249 0.798803327,12.99954 C0.702510886,12.7294367 0.575937804,12.3145919 0.41908408,11.7562169 C0.261624744,11.1978418 0.152614434,10.6951832 0.0914475378,10.2506634 C0.0302806416,9.80553794 0,9.34708903 0,8.87592224 C0,7.27044262 0.445125432,5.64679462 1.3353763,4.00618945 C2.31283541,2.24264488 3.23760621,1.17797752 4.11089991,0.811581757 C4.54694115,0.619602489 5.14528663,0.436707414 5.90411951,0.261079692 C6.663558,0.0872688092 7.27886064,6.05612834e-05 7.75002742,6.05612834e-05 C7.99469501,6.05612834e-05 8.17759008,0.0261019131 8.29992388,0.0781846167 C8.61423694,0.18356125 9.07631953,0.846707302 9.68798849,2.068834 C9.87936214,2.40010422 10.1415925,2.871271 10.4728627,3.48233435 C10.8047386,4.09400331 11.1099674,4.64753344 11.3897606,5.14474158 C11.6689481,5.64194971 11.939657,6.10948282 12.2012817,6.54552406 C12.2533644,6.61577515 12.4059789,6.83319016 12.659125,7.19958592 C12.9122712,7.5665873 13.1000112,7.87666107 13.222345,8.12980723 C13.3440732,8.3829534 13.4058457,8.63186027 13.4058457,8.87592224 C13.4058457,9.22475523 13.1569388,9.66140209 12.659125,10.1852572 C12.1619169,10.7085067 11.620499,11.1887577 11.0360827,11.6247989 C10.4510607,12.0614457 9.9102484,12.5241339 9.41243465,13.0128635 C8.91522651,13.5021987 8.66631964,13.9031144 8.66631964,14.2168218 C8.66631964,14.3742812 8.70992376,14.5704997 8.79713201,14.8066887 C8.88434026,15.0422721 8.95822503,15.2215335 9.01999753,15.3432617 C9.08116443,15.4655955 9.20349822,15.6751375 9.3863933,15.9718878 C9.56989399,16.2686381 9.6698201,16.434576 9.68798849,16.4684903 C11.013675,18.8600554 12.532552,20.9112661 14.2434082,22.6215167 C15.9542645,24.3329786 18.0048695,25.85125 20.3964346,27.1781477 C20.4309545,27.1957104 20.5968925,27.2956366 20.8936427,27.4785316 C21.190393,27.6620323 21.3999351,27.7849717 21.5222689,27.8449274 C21.643997,27.9066999 21.8232584,27.9811903 22.0588418,28.0683985 C22.2944252,28.1556068 22.4912494,28.1986053 22.6481031,28.1986053 C22.9624162,28.1986053 23.3639375,27.950304 23.852667,27.4524903 C24.340791,26.9558878 24.8040848,26.4144699 25.2407317,25.8294479 C25.6761673,25.2444259 26.1564183,24.7036136 26.680879,24.2064055 C27.2041285,23.7085917 27.6401697,23.4596849 27.9896083,23.4596849 C28.2336703,23.4596849 28.4825771,23.5214574 28.7357233,23.6431856 C28.9882639,23.7655194 29.2989432,23.9538649 29.665339,24.2064055 C30.0317348,24.4595517 30.2497554,24.6115605 30.3194009,24.6642488 C30.7560477,24.9258735 31.2235808,25.1965825 31.720789,25.47577 C32.2179971,25.7549575 32.7721328,26.060792 33.3831962,26.3926678 C33.9942595,26.723938 34.4654263,26.9855628 34.7973022,27.1781477 C36.0188232,27.789211 36.6819693,28.250688 36.7867403,28.5656067 C36.8394286,28.6879405 36.86547,28.8708355 36.86547,29.1155031" id="Fill-1" fill="#EF3E42" mask="url(#mask-2)"></path>
                    </g>
                </g>
            </g>
        </g>
    </g>
</svg>