<?xml version="1.0" encoding="utf-8"?>
<!-- Generator: Adobe Illustrator 19.2.1, SVG Export Plug-In . SVG Version: 6.00 Build 0)  -->
<svg version="1.1" id="Layer_1" xmlns="http://www.w3.org/2000/svg" xmlns:xlink="http://www.w3.org/1999/xlink" x="0px" y="0px"
	 viewBox="0 0 122.9 122.9" style="enable-background:new 0 0 122.9 122.9;" xml:space="preserve">
<style type="text/css">
	.st0{fill:#EF3E42;fill-opacity:0.3;stroke:#EF3E42;stroke-width:2;stroke-miterlimit:10;}
	.st1{fill:none;stroke:#FFFFFF;stroke-width:1.541;stroke-miterlimit:10;}
</style>
<g>
	<circle class="st0" cx="61.5" cy="61.5" r="60.5"/>
	<g>
		<path class="st1" d="M86.4,46.4c0,3.5-0.5,6.5-1.6,8.7L67.1,93c-0.5,1.1-1.3,1.9-2.3,2.5c-1,0.6-2.1,0.9-3.3,0.9
			c-1.2,0-2.3-0.3-3.3-0.9c-1-0.6-1.8-1.5-2.3-2.5L38.1,55.2c-1.1-2.3-1.6-5.2-1.6-8.7c0-6.9,2.4-12.8,7.3-17.7
			c4.9-4.9,10.8-7.3,17.7-7.3c6.9,0,12.8,2.4,17.7,7.3C84,33.6,86.4,39.5,86.4,46.4z M70.3,55.3c2.4-2.4,3.7-5.4,3.7-8.8
			c0-3.4-1.2-6.4-3.7-8.8c-2.4-2.4-5.4-3.7-8.8-3.7c-3.4,0-6.4,1.2-8.8,3.7C50.2,40,49,43,49,46.4c0,3.4,1.2,6.4,3.7,8.8
			c2.4,2.4,5.4,3.7,8.8,3.7C64.9,58.9,67.8,57.7,70.3,55.3z"/>
	</g>
</g>
</svg>
