<?xml version="1.0" encoding="UTF-8" standalone="no"?>
<svg width="74px" height="74px" viewBox="0 0 74 74" version="1.1" xmlns="http://www.w3.org/2000/svg" xmlns:xlink="http://www.w3.org/1999/xlink">
    <!-- Generator: Sketch 41.2 (35397) - http://www.bohemiancoding.com/sketch -->
    <title>Group 6</title>
    <desc>Created with Sketch.</desc>
    <defs></defs>
    <g id="Helpful-Tips" stroke="none" stroke-width="1" fill="none" fill-rule="evenodd">
        <g id="Desktop-HD" transform="translate(-996.000000, -1718.000000)">
            <g id="Group-3-Copy-2" transform="translate(997.000000, 1718.000000)">
                <g id="Group-6" transform="translate(0.000000, 1.000000)">
                    <g id="Group-2" stroke-opacity="0.85" stroke="#231F20" stroke-width="2" fill="#231F20" fill-opacity="0.7">
                        <g id="Group-2-Copy-2">
                            <circle id="Oval-Copy" cx="36" cy="36" r="36"></circle>
                        </g>
                    </g>
                    <path d="M23.7142857,39 C23.7142857,38.0178522 23.3645868,37.1770868 22.6651786,36.4776786 C21.9657703,35.7782703 21.1250049,35.4285714 20.1428571,35.4285714 C19.1607094,35.4285714 18.319944,35.7782703 17.6205357,36.4776786 C16.9211275,37.1770868 16.5714286,38.0178522 16.5714286,39 C16.5714286,39.9821478 16.9211275,40.8229132 17.6205357,41.5223214 C18.319944,42.2217297 19.1607094,42.5714286 20.1428571,42.5714286 C21.1250049,42.5714286 21.9657703,42.2217297 22.6651786,41.5223214 C23.3645868,40.8229132 23.7142857,39.9821478 23.7142857,39 Z M24.5178571,31.8571429 L47.1964286,31.8571429 L45.2098214,23.8883929 C45.1800594,23.7693446 45.0758937,23.6391376 44.8973214,23.4977679 C44.7187491,23.3563981 44.5625007,23.2857143 44.4285714,23.2857143 L27.2857143,23.2857143 C27.151785,23.2857143 26.9955366,23.3563981 26.8169643,23.4977679 C26.638392,23.6391376 26.5342263,23.7693446 26.5044643,23.8883929 L24.5178571,31.8571429 Z M55.1428571,39 C55.1428571,38.0178522 54.7931583,37.1770868 54.09375,36.4776786 C53.3943417,35.7782703 52.5535763,35.4285714 51.5714286,35.4285714 C50.5892808,35.4285714 49.7485154,35.7782703 49.0491071,36.4776786 C48.3496989,37.1770868 48,38.0178522 48,39 C48,39.9821478 48.3496989,40.8229132 49.0491071,41.5223214 C49.7485154,42.2217297 50.5892808,42.5714286 51.5714286,42.5714286 C52.5535763,42.5714286 53.3943417,42.2217297 54.09375,41.5223214 C54.7931583,40.8229132 55.1428571,39.9821478 55.1428571,39 Z M58.7142857,36.8571429 L58.7142857,45.4285714 C58.7142857,45.6369058 58.6473221,45.808035 58.5133929,45.9419643 C58.3794636,46.0758935 58.2083344,46.1428571 58,46.1428571 L55.8571429,46.1428571 L55.8571429,49 C55.8571429,50.1904821 55.4404804,51.2023768 54.6071429,52.0357143 C53.7738054,52.8690518 52.7619107,53.2857143 51.5714286,53.2857143 C50.3809464,53.2857143 49.3690518,52.8690518 48.5357143,52.0357143 C47.7023768,51.2023768 47.2857143,50.1904821 47.2857143,49 L47.2857143,46.1428571 L24.4285714,46.1428571 L24.4285714,49 C24.4285714,50.1904821 24.0119089,51.2023768 23.1785714,52.0357143 C22.3452339,52.8690518 21.3333393,53.2857143 20.1428571,53.2857143 C18.952375,53.2857143 17.9404804,52.8690518 17.1071429,52.0357143 C16.2738054,51.2023768 15.8571429,50.1904821 15.8571429,49 L15.8571429,46.1428571 L13.7142857,46.1428571 C13.5059513,46.1428571 13.3348221,46.0758935 13.2008929,45.9419643 C13.0669636,45.808035 13,45.6369058 13,45.4285714 L13,36.8571429 C13,35.4732074 13.4873463,34.2939037 14.4620536,33.3191964 C15.4367608,32.3444892 16.6160645,31.8571429 18,31.8571429 L18.625,31.8571429 L20.96875,22.5044643 C21.3110136,21.1056478 22.0848154,19.9337845 23.2901786,18.9888393 C24.4955417,18.0438941 25.8273737,17.5714286 27.2857143,17.5714286 L44.4285714,17.5714286 C45.8869121,17.5714286 47.218744,18.0438941 48.4241071,18.9888393 C49.6294703,19.9337845 50.4032721,21.1056478 50.7455357,22.5044643 L53.0892857,31.8571429 L53.7142857,31.8571429 C55.0982212,31.8571429 56.2775249,32.3444892 57.2522321,33.3191964 C58.2269394,34.2939037 58.7142857,35.4732074 58.7142857,36.8571429 Z" id="" fill="#EF3E42"></path>
                </g>
            </g>
        </g>
    </g>
</svg>