<?xml version="1.0" encoding="utf-8"?>
<!-- Generator: Adobe Illustrator 21.0.0, SVG Export Plug-In . SVG Version: 6.00 Build 0)  -->
<svg version="1.1" id="Layer_1" xmlns="http://www.w3.org/2000/svg" xmlns:xlink="http://www.w3.org/1999/xlink" x="0px" y="0px"
	 viewBox="0 0 230 289" style="enable-background:new 0 0 230 289;" xml:space="preserve">
<style type="text/css">
	.st0{fill:#EF4043;}
</style>
<path class="st0" d="M129.9,174.2c-3.4-1.7-5.8-4.4-7-8.1c-1.3-3.7-1.1-7.3,0.6-10.7c3-6.1,4.5-12.6,4.5-19.7c0-5-0.8-9.8-2.5-14.5
	c0,0.3,0,0.8,0.1,1.4c0,0.6,0.1,1.1,0.1,1.4c0,9-2.4,17.3-7.3,25c-4.9,7.7-11.4,13.5-19.5,17.4c-3.5,1.7-7.1,1.8-10.8,0.5
	s-6.3-3.7-8-7.3c-0.9-1.8-1.3-3.7-1.3-5.7c0,2.1-0.4,4-1.3,5.7c-1.7,3.5-4.3,5.9-8,7.3c-3.7,1.3-7.3,1.1-10.8-0.5
	c-8.1-3.9-14.6-9.7-19.5-17.4c-4.9-7.7-7.3-16-7.3-25v-0.9c0.2-1.6,0.4-3.7,0.6-6.5l4-42.5L18.7,39.1c-0.7-1.4-1-2.8-1-4.3
	c0-3.9,1.7-6.7,5.1-8.4L69.7,3c2.2-1.1,4.6-1.3,7-0.6c2.4,0.7,4.2,2.1,5.5,4.3l17.5,30.7L138.8,59c15.2,1.7,29.4,6.1,42.8,13.4
	c13.4,7.3,24.9,16.8,34.7,28.7c2.4,3,3.5,6.5,3.2,10.3c-0.3,3.9-2,7-5.1,9.5c-3,2.4-6.5,3.5-10.3,3.2c-3.8-0.3-7-2-9.5-5.1
	c-5.8-6.8-12-12.6-18.8-17.2c8.2,12,13.2,25.1,14.8,39.2c0.5,3.9-0.4,7.4-2.8,10.5c-2.3,3.1-5.5,4.8-9.4,5.2
	c-3.9,0.5-7.4-0.4-10.5-2.8c-3.1-2.3-4.8-5.5-5.2-9.4c-1-8.2-3.7-16-8.1-23.3c1,4.5,1.5,9.3,1.5,14.5c0,11.2-2.4,21.9-7.3,32
	c-1.8,3.5-4.5,5.9-8.1,7.2C137,176.2,133.4,176,129.9,174.2z M78.7,153.4c0.2-5.8,2.9-9.9,8.1-12.3c3.3-1.7,5.9-4,7.9-7
	c1.9-3,2.9-6.4,2.9-10c0-5.2-1.8-9.6-5.5-13.3c-3.7-3.7-8.1-5.5-13.3-5.5c-5.5,0-9.8,1.8-13.1,5.3l-1.2,1.5c-3,3.3-4.5,7.3-4.5,12
	c0,3.6,1,6.9,2.9,10c1.9,3,4.5,5.4,7.8,7C75.8,143.5,78.5,147.6,78.7,153.4z"/>
<path class="st0" d="M79.8,177.9v-30.7h-2.2v30.7c-13.8,0.6-24.8,11.9-24.8,25.8c0,11.9,8,21.8,18.9,24.9v51.4
	c0,3.2,2.6,5.8,5.8,5.8h2.3c3.2,0,5.8-2.6,5.8-5.8v-51.4c10.9-3.1,18.9-13,18.9-24.9C104.5,189.8,93.5,178.5,79.8,177.9z
	 M78.7,200.6c-3.9,0-7-3.1-7-7c0-3.9,3.1-7,7-7c3.9,0,7,3.1,7,7C85.6,197.4,82.5,200.6,78.7,200.6z"/>
</svg>
