<?xml version="1.0" encoding="utf-8"?>
<!-- Generator: Adobe Illustrator 20.1.0, SVG Export Plug-In . SVG Version: 6.00 Build 0)  -->
<svg version="1.1" id="Layer_1" xmlns="http://www.w3.org/2000/svg" xmlns:xlink="http://www.w3.org/1999/xlink" x="0px" y="0px"
	 viewBox="0 0 122.9 122.9" style="enable-background:new 0 0 122.9 122.9;" xml:space="preserve">
<style type="text/css">
	.st0{fill:#EF3E42;fill-opacity:0.3;stroke:#EF3E42;stroke-width:2;stroke-miterlimit:10;}
	.st1{fill:none;stroke:#FFFFFF;stroke-width:1.6745;stroke-miterlimit:10;}
</style>
<g>
	<circle class="st0" cx="61.5" cy="61.5" r="60.5"/>
</g>
<g>
	<path class="st1" d="M36.9,35.5v5.8H26.7v-5.8H36.9z M65.8,58.6v5.8H26.7v-5.8H65.8z M42.6,81.8v5.8H26.7v-5.8H42.6z M52.8,29.7
		c0.8,0,1.5,0.3,2,0.9c0.6,0.6,0.9,1.3,0.9,2v11.6c0,0.8-0.3,1.5-0.9,2c-0.6,0.6-1.3,0.9-2,0.9H41.2c-0.8,0-1.5-0.3-2-0.9
		c-0.6-0.6-0.9-1.3-0.9-2V32.6c0-0.8,0.3-1.5,0.9-2c0.6-0.6,1.3-0.9,2-0.9H52.8z M58.6,76c0.8,0,1.5,0.3,2,0.9
		c0.6,0.6,0.9,1.3,0.9,2v11.6c0,0.8-0.3,1.5-0.9,2c-0.6,0.6-1.3,0.9-2,0.9H47c-0.8,0-1.5-0.3-2-0.9c-0.6-0.6-0.9-1.3-0.9-2V78.9
		c0-0.8,0.3-1.5,0.9-2c0.6-0.6,1.3-0.9,2-0.9H58.6z M96.2,35.5v5.8H57.1v-5.8H96.2z M96.2,81.8v5.8H62.9v-5.8H96.2z M81.7,52.8
		c0.8,0,1.5,0.3,2,0.9c0.6,0.6,0.9,1.3,0.9,2v11.6c0,0.8-0.3,1.5-0.9,2c-0.6,0.6-1.3,0.9-2,0.9H70.1c-0.8,0-1.5-0.3-2-0.9
		c-0.6-0.6-0.9-1.3-0.9-2V55.7c0-0.8,0.3-1.5,0.9-2c0.6-0.6,1.3-0.9,2-0.9H81.7z M96.2,58.6v5.8H86v-5.8H96.2z"/>
</g>
</svg>
