<?xml version="1.0" encoding="utf-8"?>
<!-- Generator: Adobe Illustrator 20.0.0, SVG Export Plug-In . SVG Version: 6.00 Build 0)  -->
<svg version="1.1" id="Layer_1" xmlns="http://www.w3.org/2000/svg" xmlns:xlink="http://www.w3.org/1999/xlink" x="0px" y="0px"
	 viewBox="0 0 407.7 289" style="enable-background:new 0 0 407.7 289;" xml:space="preserve">
<style type="text/css">
	.st0{opacity:0.47;fill:#EF4043;}
	.st1{fill:#EF4043;}
</style>
<path class="st0" d="M406.1,156.8l-64.6-64.6c-3.4-3.4-9.2-1-9.2,3.8v42.7c-54.3,0-102,28.9-128.4,72.2
	c-26.4-43.3-74.1-72.2-128.4-72.2V96c0-4.8-5.8-7.2-9.2-3.8L1.6,156.8c-2.1,2.1-2.1,5.5,0,7.6l64.6,64.6c3.4,3.4,9.2,1,9.2-3.8
	v-42.7c58.7,0,106.4,47.7,106.4,106.4h43.9c0-58.7,47.7-106.4,106.4-106.4v42.7c0,4.8,5.8,7.2,9.2,3.8l64.6-64.6
	C408.2,162.3,408.2,158.9,406.1,156.8z"/>
<g>
	<g>
		<line class="st1" x1="203.9" y1="224.8" x2="203.9" y2="72.7"/>
		<path class="st1" d="M272.3,66.2L207.7,1.6c-2.1-2.1-5.5-2.1-7.6,0l-64.6,64.6c-3.4,3.4-1,9.2,3.8,9.2h42.7V289h43.9V75.5h42.7
			C273.3,75.5,275.7,69.6,272.3,66.2z"/>
	</g>
</g>
</svg>
