<?xml version="1.0" encoding="utf-8"?>
<!-- Generator: Adobe Illustrator 19.2.1, SVG Export Plug-In . SVG Version: 6.00 Build 0)  -->
<svg version="1.1" id="Layer_1" xmlns="http://www.w3.org/2000/svg" xmlns:xlink="http://www.w3.org/1999/xlink" x="0px" y="0px"
	 viewBox="0 0 124.8 122.9" style="enable-background:new 0 0 124.8 122.9;" xml:space="preserve">
<style type="text/css">
	.st0{fill:#EF3E42;fill-opacity:0.3;stroke:#EF3E42;stroke-width:2;stroke-miterlimit:10;}
	.st1{fill:none;stroke:#FFFFFF;stroke-width:1.541;stroke-miterlimit:10;}
</style>
<g>
	<circle class="st0" cx="62.9" cy="61.5" r="60.5"/>
	<g>
		<path class="st1" d="M97.7,62.5l8.1,7.9c1.2,1.1,1.6,2.5,1.2,4.1c-0.5,1.6-1.5,2.6-3.1,3l-11,2.8L96,91.3c0.5,1.6,0.1,3-1.1,4.1
			c-1.1,1.2-2.5,1.6-4.1,1.1l-10.9-3.1l-2.8,11c-0.4,1.6-1.4,2.6-3,3.1c-0.5,0.1-0.8,0.1-1.1,0.1c-1.2,0-2.2-0.4-3-1.3L62,98.2
			l-7.9,8.1c-1.1,1.2-2.5,1.6-4.1,1.2c-1.6-0.4-2.6-1.4-3-3.1l-2.8-11l-10.9,3.1c-1.6,0.5-3,0.1-4.1-1.1c-1.2-1.1-1.6-2.5-1.1-4.1
			l3.1-10.9l-11-2.8c-1.6-0.4-2.6-1.4-3.1-3c-0.4-1.6,0-3,1.2-4.1l8.1-7.9l-8.1-7.9c-1.2-1.1-1.6-2.5-1.2-4.1c0.5-1.6,1.5-2.6,3.1-3
			l11-2.8l-3.1-10.9c-0.5-1.6-0.1-3,1.1-4.1c1.1-1.2,2.5-1.6,4.1-1.1l10.9,3.1l2.8-11c0.4-1.6,1.4-2.6,3-3c1.6-0.5,3-0.1,4.1,1.1
			l7.9,8.2l7.9-8.2c1.1-1.2,2.5-1.5,4.1-1.1c1.6,0.4,2.6,1.4,3,3l2.8,11l10.9-3.1c1.6-0.5,3-0.1,4.1,1.1c1.2,1.1,1.6,2.5,1.1,4.1
			l-3.1,10.9l11,2.8c1.6,0.4,2.6,1.4,3.1,3c0.4,1.6,0,3-1.2,4.1L97.7,62.5z"/>
		<path class="st1" d="M67.9,65.3L49.5,83.7c-0.7,0.7-1.5,1-2.4,1c-0.9,0-1.8-0.3-2.5-1l-2.9-2.9c-0.7-0.6-1-1.5-1-2.4
			c0-1,0.3-1.8,1-2.5l18.4-18.4c0.7,1.8,1.7,3.3,3.1,4.7C64.6,63.6,66.1,64.6,67.9,65.3z M50,77.8c0.3-0.3,0.5-0.7,0.5-1.2
			c0-0.5-0.2-0.9-0.5-1.2c-0.3-0.3-0.7-0.5-1.2-0.5c-0.5,0-0.9,0.2-1.2,0.5c-0.3,0.3-0.5,0.7-0.5,1.2c0,0.5,0.2,0.9,0.5,1.2
			c0.3,0.3,0.7,0.5,1.2,0.5C49.3,78.3,49.7,78.2,50,77.8z M85,53.6c0,0.7-0.2,1.7-0.6,2.9c-0.8,2.4-2.3,4.4-4.4,5.9
			c-2.1,1.5-4.4,2.3-7,2.3c-3.3,0-6.2-1.2-8.5-3.5c-2.4-2.4-3.5-5.2-3.5-8.5c0-3.3,1.2-6.2,3.5-8.5c2.4-2.4,5.2-3.5,8.5-3.5
			c1,0,2.1,0.1,3.3,0.4c1.1,0.3,2.1,0.7,2.9,1.3c0.3,0.2,0.4,0.4,0.4,0.8c0,0.3-0.1,0.6-0.4,0.8l-7.9,4.6v6l5.2,2.9
			c0.1-0.1,0.8-0.5,2.1-1.3c1.3-0.8,2.5-1.5,3.7-2.2c1.1-0.6,1.7-1,1.9-1c0.3,0,0.5,0.1,0.6,0.3C84.9,53.1,85,53.3,85,53.6z"/>
	</g>
</g>
</svg>
