<?xml version="1.0" encoding="utf-8"?>
<!-- Generator: Adobe Illustrator 21.0.0, SVG Export Plug-In . SVG Version: 6.00 Build 0)  -->
<svg version="1.1" id="Layer_1" xmlns="http://www.w3.org/2000/svg" xmlns:xlink="http://www.w3.org/1999/xlink" x="0px" y="0px"
	 viewBox="0 0 122.9 122.9" style="enable-background:new 0 0 122.9 122.9;" xml:space="preserve">
<style type="text/css">
	.st0{fill:#EF3E42;fill-opacity:0.3;stroke:#EF3E42;stroke-width:2;stroke-miterlimit:10;}
	.st1{fill:none;stroke:#FFFFFF;stroke-miterlimit:10;}
	.st2{fill:#FFFFFF;}
</style>
<circle class="st0" cx="61.5" cy="61.5" r="60.5"/>
<g>
	<g>
		<g>
			<path class="st1" d="M33.1,58h6.4v-7.4h-6.4V58z M41,58h7.2v-7.4H41V58z M49.5,58H56v-7.4h-6.4L49.5,58L49.5,58z M57.4,58h7.2
				v-7.4h-7.2C57.4,50.6,57.4,58,57.4,58z M65.9,58h6.4v-7.4h-6.4V58z M80.9,52.4v-1.8h-7.2V58h2.7 M33.1,67.2h6.4v-7.4h-6.4V67.2z
				 M41,67.2h7.2v-7.4H41V67.2z M49.5,67.2H56v-7.4h-6.4L49.5,67.2L49.5,67.2z M57.4,67.2h7.2v-7.4h-7.2
				C57.4,59.8,57.4,67.2,57.4,67.2z M65.9,67.2h6.4v-7.4h-6.4V67.2z M76.4,59.8h-2.7v7.4h7.2v-2.3 M82.4,64.9v2.3h6.4v-6.8
				 M33.1,76.4h6.4V69h-6.4V76.4z M41,76.4h7.2V69H41V76.4z M49.5,76.4H56V69h-6.4L49.5,76.4L49.5,76.4z M57.4,76.4h7.2V69h-7.2
				C57.4,69,57.4,76.4,57.4,76.4z M65.9,76.4h6.4V69h-6.4V76.4z M73.8,76.4H81V69h-7.2V76.4z M82.4,76.4h6.4V69h-6.4V76.4z
				 M33.1,85.6h6.4v-7.4h-6.4V85.6z M41,85.6h7.2v-7.4H41V85.6z M49.5,85.6H56v-7.4h-6.4L49.5,85.6L49.5,85.6z M57.4,85.6h7.2v-7.4
				h-7.2C57.4,78.2,57.4,85.6,57.4,85.6z M65.9,85.6h6.4v-7.4h-6.4V85.6z M73.8,85.6H81v-7.4h-7.2V85.6z M82.4,85.6h6.4v-7.4h-6.4
				V85.6z M94.5,54.9v36.6c0,1.9-1.6,3.5-3.5,3.5H31c-1.9,0-3.5-1.6-3.5-3.5v-55c0-1.9,1.6-3.5,3.5-3.5h60c1.9,0,3.5,1.6,3.5,3.5
				v2.1 M51.8,27.5H39.6V33h12.3L51.8,27.5L51.8,27.5z M82.9,27.5H70.6V33h12.3V27.5z"/>
		</g>
	</g>
	<g>
		<g>
			<path class="st1" d="M92.4,41l8,8l-16,16h-8v-8L92.4,41z M83.4,62.4l1.7-1.7l-4.5-4.5l-1.7,1.7V60h2.5v2.5L83.4,62.4L83.4,62.4z
				 M93.4,44.6c0-0.3-0.1-0.4-0.4-0.4c-0.1,0-0.2,0-0.3,0.1L82.3,54.8c-0.1,0.1-0.1,0.2-0.1,0.3c0,0.3,0.1,0.4,0.4,0.4
				c0.1,0,0.2,0,0.3-0.1L93.3,45C93.4,44.9,93.4,44.8,93.4,44.6z M105.5,42.8c0,0.7-0.2,1.3-0.7,1.7l-3.2,3.2l-8-8l3.2-3.2
				c0.5-0.5,1-0.7,1.7-0.7s1.3,0.2,1.7,0.7l4.5,4.5C105.3,41.5,105.5,42.1,105.5,42.8z"/>
		</g>
	</g>
	<polygon class="st2" points="76.7,61.8 79.7,64.7 76.7,64.7 	"/>
</g>
</svg>
