<?xml version="1.0" encoding="utf-8"?>
<!-- Generator: Adobe Illustrator 21.0.2, SVG Export Plug-In . SVG Version: 6.00 Build 0)  -->
<svg version="1.1" id="Layer_1" xmlns="http://www.w3.org/2000/svg" xmlns:xlink="http://www.w3.org/1999/xlink" x="0px" y="0px"
	 viewBox="0 0 122.9 122.9" style="enable-background:new 0 0 122.9 122.9;" xml:space="preserve">
<style type="text/css">
	.st0{fill:#EF3E42;fill-opacity:0.3;stroke:#EF3E42;stroke-width:2;stroke-miterlimit:10;}
	.st1{fill:none;stroke:#FFFFFF;stroke-miterlimit:10;}
	.st2{fill:#FFFFFF;}
</style>
<circle class="st0" cx="61.5" cy="61.5" r="60.5"/>
<g>
	<g>
		<g>
			<path class="st1" d="M94.5,54.9v36.6c0,1.9-1.6,3.5-3.5,3.5H31c-1.9,0-3.5-1.6-3.5-3.5v-55c0-1.9,1.6-3.5,3.5-3.5h60
				c1.9,0,3.5,1.6,3.5,3.5v2.1 M51.8,27.5H39.6V33h12.3L51.8,27.5L51.8,27.5z M82.9,27.5H70.6V33h12.3V27.5z"/>
		</g>
	</g>
	<g>
		<g>
			<path class="st1" d="M92.4,41l8,8l-16,16h-8v-8L92.4,41z M83.4,62.4l1.7-1.7l-4.5-4.5l-1.7,1.7V60h2.5v2.5L83.4,62.4L83.4,62.4z
				 M93.4,44.6c0-0.3-0.1-0.4-0.4-0.4c-0.1,0-0.2,0-0.3,0.1L82.3,54.8c-0.1,0.1-0.1,0.2-0.1,0.3c0,0.3,0.1,0.4,0.4,0.4
				c0.1,0,0.2,0,0.3-0.1L93.3,45C93.4,44.9,93.4,44.8,93.4,44.6z M105.5,42.8c0,0.7-0.2,1.3-0.7,1.7l-3.2,3.2l-8-8l3.2-3.2
				c0.5-0.5,1-0.7,1.7-0.7s1.3,0.2,1.7,0.7l4.5,4.5C105.3,41.5,105.5,42.1,105.5,42.8z"/>
		</g>
	</g>
	<polygon class="st2" points="76.7,61.8 79.7,64.7 76.7,64.7 	"/>
</g>
<line class="st1" x1="27.5" y1="43.3" x2="90.4" y2="43.3"/>
<path class="st2" d="M55.4,82.8h-6V66.3l0.1-2.7l0.1-3c-1,1-1.7,1.7-2.1,2l-3.3,2.6l-2.9-3.6l9.2-7.3h5V82.8z"/>
<path class="st2" d="M65.4,77.4L69,74c2.4-2.2,4.2-4,5.1-5.2c1-1.2,1.7-2.3,1.7-2.4h-1V57l0.4-0.4c-0.7-0.7-1.5-1.3-2.5-1.8
	c-1.4-0.7-2.9-1-4.7-1c-1.4,0-2.6,0.1-3.7,0.4c-1.1,0.3-2.1,0.6-3,1.1s-2.1,1.3-3.5,2.5l3.3,3.9c1.1-0.9,2.2-1.7,3.3-2.2
	c1-0.5,2.1-0.8,3.2-0.8c1.1,0,1.9,0.3,2.5,0.8c0.6,0.6,0.9,1.4,0.9,2.6c0,0.8-0.1,1.5-0.4,2.2c-0.3,0.7-0.8,1.5-1.4,2.3
	s-2,2.3-4.2,4.5l-7.2,7.2v4.2h19.9v-5.1H65.4V77.4z"/>
</svg>
