<?xml version="1.0" encoding="utf-8"?>
<!-- Generator: Adobe Illustrator 19.2.1, SVG Export Plug-In . SVG Version: 6.00 Build 0)  -->
<svg version="1.1" id="Layer_1" xmlns="http://www.w3.org/2000/svg" xmlns:xlink="http://www.w3.org/1999/xlink" x="0px" y="0px"
	 viewBox="0 0 122.9 122.9" style="enable-background:new 0 0 122.9 122.9;" xml:space="preserve">
<style type="text/css">
	.st0{fill:#EF3E42;fill-opacity:0.3;stroke:#EF3E42;stroke-width:2;stroke-miterlimit:10;}
	.st1{fill:none;stroke:#FFFFFF;stroke-miterlimit:10;}
	.st2{fill:#FFFFFF;}
</style>
<circle class="st0" cx="61.5" cy="61.5" r="60.5"/>
<g>
	<g>
		<path class="st1" d="M95,38.3v51.6c0,1.4-0.5,2.6-1.5,3.6c-1,1-2.2,1.5-3.6,1.5H33.1c-1.4,0-2.6-0.5-3.6-1.5c-1-1-1.5-2.2-1.5-3.6
			V38.3c0-1.4,0.5-2.6,1.5-3.6c1-1,2.2-1.5,3.6-1.5h5.2v-3.9c0-1.8,0.6-3.3,1.9-4.6c1.3-1.3,2.8-1.9,4.6-1.9h2.6
			c1.8,0,3.3,0.6,4.6,1.9c1.3,1.3,1.9,2.8,1.9,4.6v3.9h15.5v-3.9c0-1.8,0.6-3.3,1.9-4.6c1.3-1.3,2.8-1.9,4.6-1.9h2.6
			c1.8,0,3.3,0.6,4.6,1.9c1.3,1.3,1.9,2.8,1.9,4.6v3.9h5.2c1.4,0,2.6,0.5,3.6,1.5C94.5,35.7,95,36.9,95,38.3z M33.1,60.2h11.6V48.6
			H33.1V60.2z M33.1,89.9h11.6V78.3H33.1V89.9z M48.6,40.9V29.3c0-0.3-0.1-0.7-0.4-0.9c-0.3-0.3-0.6-0.4-0.9-0.4h-2.6
			c-0.3,0-0.7,0.1-0.9,0.4c-0.3,0.3-0.4,0.6-0.4,0.9v11.6c0,0.3,0.1,0.7,0.4,0.9c0.3,0.3,0.6,0.4,0.9,0.4h2.6c0.3,0,0.7-0.1,0.9-0.4
			C48.4,41.5,48.6,41.2,48.6,40.9z M47.3,60.2h12.9V48.6H47.3V60.2z M47.3,89.9h12.9V78.3H47.3V89.9z M62.7,60.2h12.9V48.6H62.7
			V60.2z M62.7,89.9h12.9V78.3H62.7V89.9z M79.5,40.9V29.3c0-0.3-0.1-0.7-0.4-0.9c-0.3-0.3-0.6-0.4-0.9-0.4h-2.6
			c-0.3,0-0.7,0.1-0.9,0.4c-0.3,0.3-0.4,0.6-0.4,0.9v11.6c0,0.3,0.1,0.7,0.4,0.9c0.3,0.3,0.6,0.4,0.9,0.4h2.6c0.3,0,0.7-0.1,0.9-0.4
			C79.4,41.5,79.5,41.2,79.5,40.9z M78.2,60.2h11.6V48.6H78.2V60.2z M78.2,89.9h11.6V78.3H78.2V89.9z"/>
	</g>
	<rect x="33.1" y="62.8" class="st2" width="11.6" height="12.9"/>
	<rect x="47.3" y="62.8" class="st2" width="12.9" height="12.9"/>
	<rect x="62.7" y="62.8" class="st2" width="12.9" height="12.9"/>
	<rect x="78.2" y="62.8" class="st2" width="11.6" height="12.9"/>
</g>
</svg>
