<?xml version="1.0" encoding="utf-8"?>
<!-- Generator: Adobe Illustrator 20.1.0, SVG Export Plug-In . SVG Version: 6.00 Build 0)  -->
<svg version="1.1" id="Layer_1" xmlns="http://www.w3.org/2000/svg" xmlns:xlink="http://www.w3.org/1999/xlink" x="0px" y="0px"
	 viewBox="0 0 122.9 122.9" style="enable-background:new 0 0 122.9 122.9;" xml:space="preserve">
<style type="text/css">
	.st0{fill:#EF3E42;fill-opacity:0.3;stroke:#EF3E42;stroke-width:2;stroke-miterlimit:10;}
	.st1{fill:none;stroke:#FFFFFF;stroke-width:1.541;stroke-miterlimit:10;}
</style>
<g>
	<circle class="st0" cx="61.5" cy="61.5" r="60.5"/>
</g>
<g>
	<path class="st1" d="M88.7,42.5c0,5.4-1.8,10.1-5.4,14.1c-1.6,1.7-2.9,3.2-3.9,4.6c-1,1.3-2.1,3-3.1,5c-1.1,2-1.6,3.9-1.8,5.6
		c1.6,1,2.5,2.4,2.5,4.3c0,1.3-0.4,2.4-1.3,3.4c0.9,0.9,1.3,2.1,1.3,3.4c0,1.8-0.8,3.2-2.4,4.3c0.5,0.8,0.7,1.6,0.7,2.5
		c0,1.6-0.6,2.9-1.7,3.7c-1.1,0.9-2.5,1.3-4.1,1.3c-0.7,1.5-1.8,2.8-3.2,3.7c-1.4,0.9-2.9,1.4-4.6,1.4c-1.6,0-3.2-0.5-4.6-1.4
		c-1.4-0.9-2.5-2.1-3.2-3.7c-1.6,0-3-0.4-4.1-1.3s-1.7-2.1-1.7-3.7c0-0.8,0.2-1.7,0.7-2.5c-1.6-1-2.4-2.4-2.4-4.3
		c0-1.3,0.4-2.4,1.3-3.4c-0.9-0.9-1.3-2.1-1.3-3.4c0-1.9,0.8-3.3,2.5-4.3c-0.1-1.8-0.7-3.6-1.8-5.6c-1.1-2-2.1-3.7-3.1-5
		s-2.3-2.9-3.9-4.6c-3.6-4-5.4-8.6-5.4-14.1c0-3.5,0.8-6.7,2.3-9.7c1.6-3,3.6-5.5,6.1-7.5c2.5-2,5.4-3.5,8.6-4.7
		c3.2-1.1,6.5-1.7,9.8-1.7c3.3,0,6.6,0.6,9.8,1.7c3.2,1.1,6.1,2.7,8.6,4.7s4.6,4.5,6.1,7.5C87.9,35.8,88.7,39.1,88.7,42.5z M82,42.5
		c0-2.5-0.6-4.9-1.8-7c-1.2-2.2-2.8-3.9-4.7-5.3c-1.9-1.4-4.1-2.5-6.5-3.3c-2.4-0.8-4.8-1.2-7.2-1.2c-2.4,0-4.8,0.4-7.2,1.2
		c-2.4,0.8-4.5,1.9-6.5,3.3c-1.9,1.4-3.5,3.2-4.7,5.3c-1.2,2.2-1.8,4.5-1.8,7c0,3.5,1.2,6.7,3.6,9.5c0.3,0.4,0.9,1,1.6,1.7
		s1.3,1.3,1.6,1.7c4.5,5.4,7,10.6,7.4,15.7h12c0.5-5.1,2.9-10.3,7.4-15.7c0.3-0.4,0.9-1,1.6-1.7c0.7-0.8,1.3-1.3,1.6-1.7
		C80.8,49.2,82,46.1,82,42.5z M73.6,42.5c0,0.5-0.2,0.8-0.5,1.2c-0.3,0.3-0.7,0.5-1.2,0.5s-0.8-0.2-1.2-0.5
		c-0.3-0.3-0.5-0.7-0.5-1.2c0-1.6-0.9-2.9-2.8-3.7c-1.9-0.9-3.7-1.3-5.6-1.3c-0.5,0-0.8-0.2-1.2-0.5c-0.3-0.3-0.5-0.7-0.5-1.2
		s0.2-0.8,0.5-1.2s0.7-0.5,1.2-0.5c1.8,0,3.5,0.3,5.2,0.8c1.7,0.6,3.3,1.5,4.6,2.8C72.9,39.1,73.6,40.7,73.6,42.5z"/>
</g>
</svg>
