<?xml version="1.0" encoding="utf-8"?>
<!-- Generator: Adobe Illustrator 21.0.0, SVG Export Plug-In . SVG Version: 6.00 Build 0)  -->
<svg version="1.1" id="Layer_1" xmlns="http://www.w3.org/2000/svg" xmlns:xlink="http://www.w3.org/1999/xlink" x="0px" y="0px"
	 viewBox="0 0 122.9 122.9" style="enable-background:new 0 0 122.9 122.9;" xml:space="preserve">
<style type="text/css">
	.st0{fill:#EF3E42;fill-opacity:0.3;stroke:#EF3E42;stroke-width:2;stroke-miterlimit:10;}
	.st1{fill:none;stroke:#FFFFFF;stroke-width:1.541;stroke-miterlimit:10;}
</style>
<g>
	<circle class="st0" cx="61.5" cy="61.5" r="60.5"/>
</g>
<g>
	<path class="st1" d="M68.2,93.4v9.2H55.7v-9.2c-8.5-1.2-16.9-5.5-19.2-16.4l16-4.2c0.6,3.3,3.1,7.9,9.6,7.9c4.1,0,6.9-1.7,6.9-5.3
		c0-5.9-7.1-6.2-15.1-8.4c-8.5-2.4-16.5-6.4-16.5-18.5c0-10.9,6.6-17.1,17.3-18.6v-9.2h12.5v9.2c9.7,1.6,16,6.8,18.3,15.1L70.4,49
		c-0.8-4-3.9-6.5-9.4-6.5c-5.2,0-7.1,2.3-7.1,5.1c0,4.5,3.9,5.5,12.3,7.6c8.9,2.3,20.2,5.4,20.2,19.2C86.3,85.5,78.9,91.8,68.2,93.4
		z"/>
</g>
</svg>
