<?xml version="1.0" encoding="utf-8"?>
<!-- Generator: Adobe Illustrator 19.2.1, SVG Export Plug-In . SVG Version: 6.00 Build 0)  -->
<svg version="1.1" id="Layer_1" xmlns="http://www.w3.org/2000/svg" xmlns:xlink="http://www.w3.org/1999/xlink" x="0px" y="0px"
	 viewBox="0 0 122.9 122.9" style="enable-background:new 0 0 122.9 122.9;" xml:space="preserve">
<style type="text/css">
	.st0{fill:#EF3E42;fill-opacity:0.3;stroke:#EF3E42;stroke-width:2;stroke-miterlimit:10;}
	.st1{fill:none;stroke:#FFFFFF;stroke-width:1.541;stroke-miterlimit:10;}
</style>
<g>
	<circle class="st0" cx="61.5" cy="61.5" r="60.5"/>
	<g>
		<path class="st1" d="M104.2,37.5v51.9c0,0.8-0.3,1.5-0.9,2c-0.6,0.6-1.2,0.9-2,0.9H20.6c-0.8,0-1.5-0.3-2-0.9
			c-0.6-0.6-0.9-1.2-0.9-2V37.5c0-0.8,0.3-1.5,0.9-2c0.6-0.6,1.2-0.9,2-0.9h80.7c0.8,0,1.5,0.3,2,0.9
			C103.9,36.1,104.2,36.8,104.2,37.5z M98.4,75V52c-3.2,0-5.9-1.1-8.2-3.4c-2.3-2.3-3.4-5-3.4-8.2H35c0,3.2-1.1,5.9-3.4,8.2
			c-2.3,2.3-5,3.4-8.2,3.4V75c3.2,0,5.9,1.1,8.2,3.4c2.3,2.3,3.4,5,3.4,8.2h51.9c0-3.2,1.1-5.9,3.4-8.2C92.5,76.1,95.2,75,98.4,75z
			 M74.4,57.1c0.6,2.2,0.9,4.3,0.9,6.4c0,2.1-0.3,4.2-0.9,6.4c-0.6,2.2-1.5,4.2-2.7,6c-1.2,1.9-2.7,3.4-4.6,4.5
			c-1.9,1.2-4,1.8-6.2,1.8c-2.3,0-4.3-0.6-6.2-1.8c-1.9-1.2-3.4-2.7-4.6-4.5c-1.2-1.9-2-3.9-2.7-6c-0.6-2.2-0.9-4.3-0.9-6.4
			c0-2.1,0.3-4.2,0.9-6.4c0.6-2.2,1.5-4.2,2.7-6c1.2-1.9,2.7-3.4,4.6-4.5c1.9-1.2,4-1.8,6.2-1.8c2.3,0,4.3,0.6,6.2,1.8
			c1.9,1.2,3.4,2.7,4.6,4.5C72.9,52.9,73.7,54.9,74.4,57.1z M52.3,75h17.3v-4.3h-5.8V50.5h-5.1L52,56.7l3.5,3.6
			c1.3-1.1,2.1-2,2.5-2.6H58v13h-5.8V75z"/>
	</g>
</g>
</svg>
