<?xml version="1.0" encoding="utf-8"?>
<!-- Generator: Adobe Illustrator 21.0.2, SVG Export Plug-In . SVG Version: 6.00 Build 0)  -->
<svg version="1.1" id="Layer_1" xmlns="http://www.w3.org/2000/svg" xmlns:xlink="http://www.w3.org/1999/xlink" x="0px" y="0px"
	 viewBox="0 0 93.1 93.1" style="enable-background:new 0 0 93.1 93.1;" xml:space="preserve">
<style type="text/css">
	.st0{fill:#EF3E42;fill-opacity:0.3;stroke:#EF3E42;stroke-width:2;stroke-miterlimit:10;}
	.st1{enable-background:new    ;}
	.st2{fill:none;stroke:#FFFFFF;stroke-width:2;stroke-miterlimit:10;}
</style>
<g>
	<circle class="st0" cx="46.5" cy="46.5" r="45.5"/>
</g>
<g class="st1">
	<path class="st2" d="M78.4,34.4c0,1.1-0.4,2-1.1,2.7L48.6,65.8l-5.4,5.4c-0.7,0.7-1.6,1.1-2.7,1.1c-1.1,0-2-0.4-2.7-1.1l-5.4-5.4
		L18.1,51.4c-0.7-0.7-1.1-1.6-1.1-2.7c0-1.1,0.4-2,1.1-2.7l5.4-5.4c0.7-0.7,1.6-1.1,2.7-1.1c1.1,0,2,0.4,2.7,1.1l11.6,11.7l26-26
		c0.7-0.7,1.6-1.1,2.7-1.1c1.1,0,2,0.4,2.7,1.1l5.4,5.4C78,32.5,78.4,33.4,78.4,34.4z"/>
</g>
</svg>
