<?xml version="1.0" encoding="utf-8"?>
<!-- Generator: Adobe Illustrator 19.2.1, SVG Export Plug-In . SVG Version: 6.00 Build 0)  -->
<svg version="1.1" id="Layer_1" xmlns="http://www.w3.org/2000/svg" xmlns:xlink="http://www.w3.org/1999/xlink" x="0px" y="0px"
	 viewBox="0 0 384.2 75.6" style="enable-background:new 0 0 384.2 75.6;" xml:space="preserve">
<style type="text/css">
	.st0{fill:none;stroke:#231F20;stroke-width:0.2989;stroke-miterlimit:2.6131;}
	.st1{fill-rule:evenodd;clip-rule:evenodd;fill:#231F20;}
	.st2{fill:none;stroke:#EF3E42;stroke-width:0.2989;stroke-miterlimit:2.6131;}
	.st3{fill-rule:evenodd;clip-rule:evenodd;fill:#EF3E42;}
</style>
<g>
	<path class="st0" d="M222.9,1.8L222.2,4c-0.4-0.4-1.1-0.9-1.7-1.1c-0.8-0.2-1.6-0.5-2.3-0.5c-0.8,0-1.7,0.1-2.3,0.4
		c-0.7,0.2-1.4,0.6-2,1.1c-0.5,0.6-1.1,1.2-1.4,1.9c-0.3,0.7-0.6,1.6-0.7,2.3c-0.1,1.3,0.3,2.5,1.1,3.3c0.8,0.7,2.1,1.2,3.6,1.2
		c0.7,0,1.5-0.1,2.2-0.3c0.7-0.3,1.4-0.6,2.1-1.1l-0.7,2.7c-0.7,0.2-1.5,0.4-2,0.4c-0.6,0.1-1.4,0.2-1.9,0.2c-2.2,0-4-0.6-5.2-1.7
		c-1.2-1.1-1.8-2.8-1.7-4.7c0.2-1,0.5-2.2,1-3.1c0.4-0.9,1.2-1.8,2-2.5c0.8-0.5,1.8-1.1,2.7-1.4c0.9-0.3,2.1-0.6,3.1-0.6
		c1,0,1.9,0.1,2.6,0.3C221.5,1.1,222.2,1.4,222.9,1.8L222.9,1.8z M225.3,10.2c-0.1,0.8,0.1,1.5,0.4,1.9c0.4,0.5,1,0.7,1.8,0.7
		c0.7,0,1.5-0.3,2.1-0.9c0.5-0.5,1-1.5,1.1-2.6c0-0.7-0.1-1.3-0.5-1.8c-0.4-0.4-1.2-0.6-1.9-0.6c-0.8,0-1.6,0.3-2.1,0.8
		C225.7,8.4,225.3,9.3,225.3,10.2L225.3,10.2z M231.7,14.3h-2.3l0.2-0.9c-0.3,0.5-0.9,0.8-1.4,0.9c-0.5,0.2-1.1,0.3-1.8,0.3
		c-1.2,0-2.3-0.3-2.8-1c-0.6-0.7-0.9-1.8-0.8-3c0.2-1.6,0.8-3,1.7-3.9c0.8-0.9,2.1-1.4,3.4-1.4c0.6,0,1.3,0,1.8,0.3
		c0.5,0.2,1,0.8,1.4,1.3l0.4-1.3h2.2L231.7,14.3L231.7,14.3z M242,7.4c-0.1,0-0.3-0.2-0.5-0.2c-0.1,0-0.4-0.1-0.6-0.1
		c-0.8,0-1.4,0.3-1.9,0.8c-0.5,0.4-1,1.3-1.1,2.5l-1,3.9h-2.1l2-8.7h2.1l-0.3,1.3c0.3-0.5,0.9-1,1.3-1.2c0.5-0.2,1.2-0.4,1.7-0.4
		c0.1,0,0.4,0,0.6,0c0.2,0,0.5,0.3,0.7,0.4L242,7.4L242,7.4z M255.2,5.6c0.8-0.5,1.5-1,1.8-1.3c0.3-0.2,0.5-0.6,0.6-1
		c0-0.3-0.1-0.6-0.3-0.9c-0.2-0.2-0.7-0.3-1.3-0.3c-0.3,0-0.7,0.1-1,0.3c-0.3,0.3-0.5,0.7-0.5,1c0,0.3,0.1,0.7,0.1,0.9
		C254.7,4.7,254.8,5.1,255.2,5.6L255.2,5.6L255.2,5.6z M256.6,11.2c-0.3-0.4-0.8-1.1-1.1-1.5c-0.4-0.6-0.8-1.3-1.3-2
		c-1.2,0.6-2.1,1.2-2.5,1.6c-0.6,0.5-0.9,1.1-1,1.6c0,0.6,0.2,1.1,0.6,1.4c0.3,0.3,1,0.5,1.6,0.5c0.5,0,1.1-0.1,1.7-0.3
		C255.1,12.3,255.7,11.8,256.6,11.2L256.6,11.2z M258.7,14.3l-1.3-1.7c-0.8,0.7-1.6,1.3-2.4,1.5c-0.8,0.2-1.7,0.4-2.5,0.4
		c-1.3,0-2.3-0.3-3-0.9c-0.7-0.7-1-1.6-0.9-2.6c0.1-0.9,0.5-1.7,1.1-2.4c0.7-0.6,2.1-1.4,3.7-2.1c-0.5-0.7-0.8-1.2-0.9-1.7
		c-0.1-0.5-0.2-0.9-0.1-1.4c0-0.9,0.5-1.6,1.1-2.1c0.5-0.5,1.6-0.8,2.6-0.8c1,0,2,0.3,2.5,0.7c0.6,0.4,0.9,1.2,0.8,2
		c0,0.7-0.4,1.4-0.9,1.8c-0.6,0.6-1.5,1.3-2.7,1.9c0.2,0.4,0.6,1.1,1,1.5c0.3,0.5,0.8,1.1,1.2,1.7l2.3-1.9l1.1,1.3l-2.4,2l2.1,2.8
		H258.7L258.7,14.3z M271.3,14.3L274,2.8h-4.1l0.4-2h10.5l-0.5,2h-3.9l-2.8,11.5H271.3L271.3,14.3z M285,7.4c-0.2,0-0.4-0.2-0.5-0.2
		c-0.2,0-0.4-0.1-0.6-0.1c-0.8,0-1.5,0.3-1.9,0.8c-0.6,0.4-1,1.3-1.2,2.5l-0.9,3.9h-2.2l2-8.7h2.1l-0.2,1.3c0.3-0.5,0.8-1,1.2-1.2
		c0.5-0.2,1.2-0.4,1.7-0.4c0.1,0,0.4,0,0.7,0c0.2,0,0.4,0.3,0.7,0.4L285,7.4L285,7.4z M287.3,5.6h2.3l-1,3.6c0,0,0,0.2,0,0.3
		c0,0.9-0.3,1.4-0.3,1.6c0,0.6,0.2,1,0.5,1.3c0.2,0.2,0.8,0.4,1.3,0.4c0.9,0,1.7-0.2,2.1-0.5c0.4-0.5,0.9-1.4,1.1-2.6l1-4.1h2.4
		l-1.2,4.4c-0.3,1.1-0.6,1.9-0.8,2.4c-0.2,0.4-0.7,1-1.1,1.2c-0.4,0.3-1.1,0.7-1.6,0.8c-0.5,0.1-1.4,0.2-2.2,0.2
		c-1.2,0-2.4-0.3-3-0.7c-0.6-0.5-0.9-1.4-0.8-2.5c0-0.3,0.2-1,0.3-1.7l0,0L287.3,5.6L287.3,5.6z M306.4,8c-0.4-0.3-0.8-0.6-1.4-0.7
		c-0.5-0.2-0.9-0.4-1.5-0.4c-1,0-1.9,0.4-2.5,1c-0.5,0.6-1,1.5-1.1,2.5c-0.1,0.7,0.1,1.4,0.5,1.7c0.4,0.5,1.1,0.7,1.8,0.7
		c0.6,0,1.1-0.1,1.6-0.2c0.5-0.1,1.2-0.5,1.7-0.7l-0.7,2.2c-0.4,0.2-0.9,0.4-1.3,0.4c-0.4,0-0.9,0.1-1.4,0.1c-1.5,0-2.8-0.4-3.5-1.1
		c-0.7-0.7-1.1-1.8-1-3.1c0.1-1.4,0.8-2.8,1.9-3.7c1.1-0.9,2.7-1.4,4.2-1.4c0.6,0,1.3,0,1.8,0.2c0.5,0.1,1.1,0.4,1.6,0.7L306.4,8
		L306.4,8z M307.4,14.3l3.3-14.1h2.3l-2.3,9.2l5.4-3.7h2.9L313,9.7l3.8,4.6h-2.7l-3.6-4.5l-1.1,4.5H307.4L307.4,14.3z M327.1,14.3
		h-2.2L328,0.8h2.8c1.1,0,2,0.2,2.5,0.3c0.6,0.1,1.1,0.4,1.4,0.7c0.5,0.2,0.8,0.6,1,1.1c0.2,0.4,0.3,1.1,0.3,1.6
		c-0.1,1.1-0.6,2-1.3,2.7c-0.8,0.7-1.9,1.1-3,1.3l3.6,5.8h-2.7l-3.5-5.8h-0.5L327.1,14.3L327.1,14.3z M329,6.9h0.4
		c1.5,0,2.5-0.3,3.1-0.5c0.5-0.2,1-0.9,1-1.7c0.1-0.7-0.1-1.3-0.5-1.5c-0.5-0.2-1.5-0.4-2.8-0.4h-0.3L329,6.9L329,6.9z M339,8.9h5.1
		c0.1-0.5-0.3-1-0.5-1.4c-0.3-0.3-0.9-0.6-1.6-0.6c-0.8,0-1.4,0.3-2,0.6C339.5,7.9,339.1,8.4,339,8.9L339,8.9L339,8.9z M343.6,11.7
		l1.5,1c-0.6,0.7-1.4,1.2-2.1,1.5c-0.6,0.2-1.5,0.4-2.3,0.4c-1.4,0-2.7-0.4-3.4-1.1c-0.8-0.7-1.2-1.8-1.1-3.1
		c0.2-1.4,0.8-2.8,1.9-3.7c1.1-0.9,2.6-1.4,4.1-1.4c1.3,0,2.4,0.4,3.1,1.1c0.7,0.7,1.1,1.8,1,3c0,0,0,0.3,0,0.4
		c0,0.1-0.2,0.3-0.2,0.6h-7.6c-0.1,0.7,0.1,1.4,0.5,1.7c0.3,0.5,0.9,0.7,1.7,0.7c0.5,0,1.1-0.1,1.6-0.2
		C342.8,12.4,343.4,12,343.6,11.7L343.6,11.7z M354.6,14.3l1.1-5l0.1-0.2c0-0.1,0.1-0.3,0.1-0.6c0.1-0.4-0.1-1-0.4-1.2
		c-0.2-0.4-0.8-0.6-1.3-0.6c-0.9,0-1.7,0.4-2.2,0.8c-0.6,0.6-1.1,1.5-1.3,2.5l-1,4.3h-2.2l2-8.7h2.2l-0.3,1c0.6-0.4,1.3-0.8,1.9-1
		c0.5-0.3,1.3-0.3,1.9-0.3c1,0,1.9,0.2,2.4,0.6c0.5,0.5,0.8,1.3,0.7,2.1c0,0.2,0,0.4-0.1,0.6c0,0.3-0.3,0.7-0.3,1.1l-1.1,4.6H354.6
		L354.6,14.3z M360,14.3l1.7-7h-1.8l0.4-1.7h1.8l0.7-3.3h2.3l-0.9,3.3h2l-0.6,1.7h-1.8l-1.6,7H360L360,14.3z M368.7,10.2
		c-0.1,0.8,0.1,1.5,0.5,1.9c0.3,0.5,0.9,0.7,1.7,0.7c0.7,0,1.5-0.3,2.1-0.9c0.6-0.5,1-1.5,1.1-2.6c0.1-0.7-0.1-1.3-0.5-1.8
		c-0.4-0.4-1.1-0.6-1.9-0.6c-0.8,0-1.6,0.3-2,0.8C369,8.4,368.8,9.3,368.7,10.2L368.7,10.2z M375.1,14.3h-2.3l0.2-0.9
		c-0.3,0.5-0.8,0.8-1.3,0.9c-0.6,0.2-1.2,0.3-1.9,0.3c-1.2,0-2.2-0.3-2.8-1c-0.6-0.7-0.9-1.8-0.7-3c0.1-1.6,0.7-3,1.6-3.9
		c0.8-0.9,2.2-1.4,3.4-1.4c0.7,0,1.3,0,1.8,0.3c0.5,0.2,1.1,0.8,1.4,1.3l0.4-1.3h2.3L375.1,14.3L375.1,14.3z M380.5,14.3h-2.2
		l3.3-14.1h2.4L380.5,14.3L380.5,14.3z"/>
	<path class="st1" d="M222.9,1.8L222.2,4c-0.4-0.4-1.1-0.9-1.7-1.1c-0.8-0.2-1.6-0.5-2.3-0.5c-0.8,0-1.7,0.1-2.3,0.4
		c-0.7,0.2-1.4,0.6-2,1.1c-0.5,0.6-1.1,1.2-1.4,1.9c-0.3,0.7-0.6,1.6-0.7,2.3c-0.1,1.3,0.3,2.5,1.1,3.3c0.8,0.7,2.1,1.2,3.6,1.2
		c0.7,0,1.5-0.1,2.2-0.3c0.7-0.3,1.4-0.6,2.1-1.1l-0.7,2.7c-0.7,0.2-1.5,0.4-2,0.4c-0.6,0.1-1.4,0.2-1.9,0.2c-2.2,0-4-0.6-5.2-1.7
		c-1.2-1.1-1.8-2.8-1.7-4.7c0.2-1,0.5-2.2,1-3.1c0.4-0.9,1.2-1.8,2-2.5c0.8-0.5,1.8-1.1,2.7-1.4c0.9-0.3,2.1-0.6,3.1-0.6
		c1,0,1.9,0.1,2.6,0.3C221.5,1.1,222.2,1.4,222.9,1.8L222.9,1.8z M225.3,10.2c-0.1,0.8,0.1,1.5,0.4,1.9c0.4,0.5,1,0.7,1.8,0.7
		c0.7,0,1.5-0.3,2.1-0.9c0.5-0.5,1-1.5,1.1-2.6c0-0.7-0.1-1.3-0.5-1.8c-0.4-0.4-1.2-0.6-1.9-0.6c-0.8,0-1.6,0.3-2.1,0.8
		C225.7,8.4,225.3,9.3,225.3,10.2L225.3,10.2z M231.7,14.3h-2.3l0.2-0.9c-0.3,0.5-0.9,0.8-1.4,0.9c-0.5,0.2-1.1,0.3-1.8,0.3
		c-1.2,0-2.3-0.3-2.8-1c-0.6-0.7-0.9-1.8-0.8-3c0.2-1.6,0.8-3,1.7-3.9c0.8-0.9,2.1-1.4,3.4-1.4c0.6,0,1.3,0,1.8,0.3
		c0.5,0.2,1,0.8,1.4,1.3l0.4-1.3h2.2L231.7,14.3L231.7,14.3z M242,7.4c-0.1,0-0.3-0.2-0.5-0.2c-0.1,0-0.4-0.1-0.6-0.1
		c-0.8,0-1.4,0.3-1.9,0.8c-0.5,0.4-1,1.3-1.1,2.5l-1,3.9h-2.1l2-8.7h2.1l-0.3,1.3c0.3-0.5,0.9-1,1.3-1.2c0.5-0.2,1.2-0.4,1.7-0.4
		c0.1,0,0.4,0,0.6,0c0.2,0,0.5,0.3,0.7,0.4L242,7.4L242,7.4z M255.2,5.6c0.8-0.5,1.5-1,1.8-1.3c0.3-0.2,0.5-0.6,0.6-1
		c0-0.3-0.1-0.6-0.3-0.9c-0.2-0.2-0.7-0.3-1.3-0.3c-0.3,0-0.7,0.1-1,0.3c-0.3,0.3-0.5,0.7-0.5,1c0,0.3,0.1,0.7,0.1,0.9
		C254.7,4.7,254.8,5.1,255.2,5.6L255.2,5.6L255.2,5.6z M256.6,11.2c-0.3-0.4-0.8-1.1-1.1-1.5c-0.4-0.6-0.8-1.3-1.3-2
		c-1.2,0.6-2.1,1.2-2.5,1.6c-0.6,0.5-0.9,1.1-1,1.6c0,0.6,0.2,1.1,0.6,1.4c0.3,0.3,1,0.5,1.6,0.5c0.5,0,1.1-0.1,1.7-0.3
		C255.1,12.3,255.7,11.8,256.6,11.2L256.6,11.2z M258.7,14.3l-1.3-1.7c-0.8,0.7-1.6,1.3-2.4,1.5c-0.8,0.2-1.7,0.4-2.5,0.4
		c-1.3,0-2.3-0.3-3-0.9c-0.7-0.7-1-1.6-0.9-2.6c0.1-0.9,0.5-1.7,1.1-2.4c0.7-0.6,2.1-1.4,3.7-2.1c-0.5-0.7-0.8-1.2-0.9-1.7
		c-0.1-0.5-0.2-0.9-0.1-1.4c0-0.9,0.5-1.6,1.1-2.1c0.5-0.5,1.6-0.8,2.6-0.8c1,0,2,0.3,2.5,0.7c0.6,0.4,0.9,1.2,0.8,2
		c0,0.7-0.4,1.4-0.9,1.8c-0.6,0.6-1.5,1.3-2.7,1.9c0.2,0.4,0.6,1.1,1,1.5c0.3,0.5,0.8,1.1,1.2,1.7l2.3-1.9l1.1,1.3l-2.4,2l2.1,2.8
		H258.7L258.7,14.3z M271.3,14.3L274,2.8h-4.1l0.4-2h10.5l-0.5,2h-3.9l-2.8,11.5H271.3L271.3,14.3z M285,7.4c-0.2,0-0.4-0.2-0.5-0.2
		c-0.2,0-0.4-0.1-0.6-0.1c-0.8,0-1.5,0.3-1.9,0.8c-0.6,0.4-1,1.3-1.2,2.5l-0.9,3.9h-2.2l2-8.7h2.1l-0.2,1.3c0.3-0.5,0.8-1,1.2-1.2
		c0.5-0.2,1.2-0.4,1.7-0.4c0.1,0,0.4,0,0.7,0c0.2,0,0.4,0.3,0.7,0.4L285,7.4L285,7.4z M287.3,5.6h2.3l-1,3.6c0,0,0,0.2,0,0.3
		c0,0.9-0.3,1.4-0.3,1.6c0,0.6,0.2,1,0.5,1.3c0.2,0.2,0.8,0.4,1.3,0.4c0.9,0,1.7-0.2,2.1-0.5c0.4-0.5,0.9-1.4,1.1-2.6l1-4.1h2.4
		l-1.2,4.4c-0.3,1.1-0.6,1.9-0.8,2.4c-0.2,0.4-0.7,1-1.1,1.2c-0.4,0.3-1.1,0.7-1.6,0.8c-0.5,0.1-1.4,0.2-2.2,0.2
		c-1.2,0-2.4-0.3-3-0.7c-0.6-0.5-0.9-1.4-0.8-2.5c0-0.3,0.2-1,0.3-1.7l0,0L287.3,5.6L287.3,5.6z M306.4,8c-0.4-0.3-0.8-0.6-1.4-0.7
		c-0.5-0.2-0.9-0.4-1.5-0.4c-1,0-1.9,0.4-2.5,1c-0.5,0.6-1,1.5-1.1,2.5c-0.1,0.7,0.1,1.4,0.5,1.7c0.4,0.5,1.1,0.7,1.8,0.7
		c0.6,0,1.1-0.1,1.6-0.2c0.5-0.1,1.2-0.5,1.7-0.7l-0.7,2.2c-0.4,0.2-0.9,0.4-1.3,0.4c-0.4,0-0.9,0.1-1.4,0.1c-1.5,0-2.8-0.4-3.5-1.1
		c-0.7-0.7-1.1-1.8-1-3.1c0.1-1.4,0.8-2.8,1.9-3.7c1.1-0.9,2.7-1.4,4.2-1.4c0.6,0,1.3,0,1.8,0.2c0.5,0.1,1.1,0.4,1.6,0.7L306.4,8
		L306.4,8z M307.4,14.3l3.3-14.1h2.3l-2.3,9.2l5.4-3.7h2.9L313,9.7l3.8,4.6h-2.7l-3.6-4.5l-1.1,4.5H307.4L307.4,14.3z M327.1,14.3
		h-2.2L328,0.8h2.8c1.1,0,2,0.2,2.5,0.3c0.6,0.1,1.1,0.4,1.4,0.7c0.5,0.2,0.8,0.6,1,1.1c0.2,0.4,0.3,1.1,0.3,1.6
		c-0.1,1.1-0.6,2-1.3,2.7c-0.8,0.7-1.9,1.1-3,1.3l3.6,5.8h-2.7l-3.5-5.8h-0.5L327.1,14.3L327.1,14.3z M329,6.9h0.4
		c1.5,0,2.5-0.3,3.1-0.5c0.5-0.2,1-0.9,1-1.7c0.1-0.7-0.1-1.3-0.5-1.5c-0.5-0.2-1.5-0.4-2.8-0.4h-0.3L329,6.9L329,6.9z M339,8.9h5.1
		c0.1-0.5-0.3-1-0.5-1.4c-0.3-0.3-0.9-0.6-1.6-0.6c-0.8,0-1.4,0.3-2,0.6C339.5,7.9,339.1,8.4,339,8.9L339,8.9L339,8.9z M343.6,11.7
		l1.5,1c-0.6,0.7-1.4,1.2-2.1,1.5c-0.6,0.2-1.5,0.4-2.3,0.4c-1.4,0-2.7-0.4-3.4-1.1c-0.8-0.7-1.2-1.8-1.1-3.1
		c0.2-1.4,0.8-2.8,1.9-3.7c1.1-0.9,2.6-1.4,4.1-1.4c1.3,0,2.4,0.4,3.1,1.1c0.7,0.7,1.1,1.8,1,3c0,0,0,0.3,0,0.4
		c0,0.1-0.2,0.3-0.2,0.6h-7.6c-0.1,0.7,0.1,1.4,0.5,1.7c0.3,0.5,0.9,0.7,1.7,0.7c0.5,0,1.1-0.1,1.6-0.2
		C342.8,12.4,343.4,12,343.6,11.7L343.6,11.7z M354.6,14.3l1.1-5l0.1-0.2c0-0.1,0.1-0.3,0.1-0.6c0.1-0.4-0.1-1-0.4-1.2
		c-0.2-0.4-0.8-0.6-1.3-0.6c-0.9,0-1.7,0.4-2.2,0.8c-0.6,0.6-1.1,1.5-1.3,2.5l-1,4.3h-2.2l2-8.7h2.2l-0.3,1c0.6-0.4,1.3-0.8,1.9-1
		c0.5-0.3,1.3-0.3,1.9-0.3c1,0,1.9,0.2,2.4,0.6c0.5,0.5,0.8,1.3,0.7,2.1c0,0.2,0,0.4-0.1,0.6c0,0.3-0.3,0.7-0.3,1.1l-1.1,4.6H354.6
		L354.6,14.3z M360,14.3l1.7-7h-1.8l0.4-1.7h1.8l0.7-3.3h2.3l-0.9,3.3h2l-0.6,1.7h-1.8l-1.6,7H360L360,14.3z M368.7,10.2
		c-0.1,0.8,0.1,1.5,0.5,1.9c0.3,0.5,0.9,0.7,1.7,0.7c0.7,0,1.5-0.3,2.1-0.9c0.6-0.5,1-1.5,1.1-2.6c0.1-0.7-0.1-1.3-0.5-1.8
		c-0.4-0.4-1.1-0.6-1.9-0.6c-0.8,0-1.6,0.3-2,0.8C369,8.4,368.8,9.3,368.7,10.2L368.7,10.2z M375.1,14.3h-2.3l0.2-0.9
		c-0.3,0.5-0.8,0.8-1.3,0.9c-0.6,0.2-1.2,0.3-1.9,0.3c-1.2,0-2.2-0.3-2.8-1c-0.6-0.7-0.9-1.8-0.7-3c0.1-1.6,0.7-3,1.6-3.9
		c0.8-0.9,2.2-1.4,3.4-1.4c0.7,0,1.3,0,1.8,0.3c0.5,0.2,1.1,0.8,1.4,1.3l0.4-1.3h2.3L375.1,14.3L375.1,14.3z M380.5,14.3h-2.2
		l3.3-14.1h2.4L380.5,14.3L380.5,14.3z"/>
	<path class="st2" d="M2.5,58.6l15.5-0.1l-1.2,4.4c-0.8,2.6,1.4,3.8,3.5,3.8h4.4c5.2-0.1,7.4-5.8,8.1-9.1L44.5,4.4
		c0.3-1.5-0.2-2.8-0.6-3.8h20c-1.3,1.2-2.7,4.6-2.7,4.6L48.5,62.4c-1.5,6.9-8.7,13.1-14.3,13.1H10.7c-6.5,0-12.2-3.7-10.2-10.3
		L2.5,58.6L2.5,58.6z M83.3,40.4h-9.6c-1.5,0-3.1,0.7-3.5,2.5l-1.3,6c-0.2,1.3,0.7,2.3,2.2,2.3h7.8c1.1,0,2.2-1.1,2.5-2.3L83.3,40.4
		L83.3,40.4z M205.5,0.6c-1.8,0.7-2.4,3.2-2.4,3.2l-2,7.7c-0.5,2.2-1.5,3.5-3.3,3.6h-15c1.3-0.4,2.1-2.3,2.6-4l2-7.4
		c0.3-1.6,1.3-2.9,2.7-3.1H205.5L205.5,0.6z M173.6,58.6c2.9,0,3.9-3.7,4.5-6.3l5.2-25.1c0.1-0.9,0.5-5.1-1.5-7h15
		c2.7-0.1,3.1,2.8,2.8,4.8l-5.3,26.1c-0.9,4.3,0.9,6.3,3.1,7.5H173.6L173.6,58.6z M173.1,58.6c-2.5,0.1-1.9-4.4-1.5-6.5l4-18.5
		c1.1-5.1,0.1-7.8-1.5-10.2c-1.6-2.3-3.9-3.2-7.1-3.2h-11.4c-0.1,0-4.2,1.3-5.1,4.2c0.4-2.8-2.3-4.3-5.1-4.3l-15.4,0.1
		c-2.2,0-4.1,0.6-5.7,4.2c0.3-1.9-0.4-4.2-1.9-4.2h-15.2c2.2,1.6,1.6,6.3,1.6,6.3l-5.5,25c-0.4,2.1-2.1,7.1-4.6,7.1h15.7
		c3.6-0.1,4.1-4.7,4.5-6.5l4.3-20.2c0.6-2.6,1.8-4.2,4.3-4.2h3.9c3.2,0,2,5.3,2,5.3l-4.2,19.6c-0.2,1.4-1.3,5-3.8,6h20.9
		c-2.1-0.8-1.6-3.6-1.2-5.8l4.1-20.9c0.5-2.2,1.7-4.2,4-4.2h4.1c3.1,0,2.9,3,2.6,4.9l-4,20.1c0,0-1.2,5.9,2.9,5.9H173.1L173.1,58.6z
		 M97.9,58.6c-2.7,0-1.7-5.1-1.3-7.4l4.2-21.2c0.8-4.4-1.6-9.8-9.4-9.8H66.2c-1.7,0-4.4,0.1-4.9,2l-1.8,7.4c1.6-2,4.1-1.9,6.1-1.9
		h17.5c3.9,0,2.5,5.2-1.1,5.2H67.3c-4.4,0-8.6,2.1-9.8,7.5l-2.2,10.4c-0.8,3.8,1.8,7.9,6.7,7.9h12.6c2.9,0,5.4-1.2,6-3.7
		c0.2,1.9,1,3.7,2.6,3.7H97.9L97.9,58.6z M240,56c-0.7,1.9-2.6,2.7-5.3,2.7h-24.5c-6.2,0-10.8-5.3-9.4-12.1l3.5-17.4
		c1.1-5.7,4.7-8.9,10.1-8.9h22.3c6,0,9.8,5.4,8.9,9.8l-2.7,13.1h-26.1l-0.7,3.8c-0.1,1.1,0.9,4.2,4.7,4.2h15.6c3,0,4.5-0.7,5.5-1.8
		L240,56L240,56z M218.1,35.7h10.9l1.1-4.2c0.3-1.4-1.2-3.8-2.4-3.8H223c-1.8,0-3.6,1.3-4.1,3.8L218.1,35.7L218.1,35.7z M289.6,18.3
		L288,26c-0.4,2-4.6,1.8-6,1.8h-15.2c-0.1,0-2,0.9-2.2,2.5c-0.1,1.6,1.3,2,2.3,2h11.3c5.5,0,7.7,5.9,7.3,8.4l-2,10.1
		c-1.2,6.1-7.1,8-12.4,8H246c-2,0-3.3,0.9-4.6,2.1l1.9-7.2c0.5-1.9,2.7-2.4,4.6-2.4h18.3c1.5,0,2.6-1.7,2.7-2.7c0-1-0.3-2.8-1.9-2.8
		c-4.6,0-9.4,0-14,0c-3.5,0-6.2-4.1-5.3-8.5l1.7-8.1c1.2-5.8,4.1-8.9,10.9-8.9h22.3C285.1,20.3,288.2,20,289.6,18.3L289.6,18.3z
		 M305.1,20.3h19.4c8.3,0,10.8,6.3,9,14.4l-3.1,14.2c-1.7,7.5-5,9.8-12.9,9.8h-19c-7.2,0-12.2-3-10.2-12.6l3.5-16.8
		C293.3,22.3,298.6,20.3,305.1,20.3L305.1,20.3z M303.5,47c-0.4,1.8-0.2,4.2,2.5,4.2h5c1.9,0,3.4-0.5,3.9-2.8l3.6-15.7
		c0.6-2.7,0-4.9-3.9-4.9h-3.3c-1.7,0-3.9,2-4.2,3.8L303.5,47L303.5,47z M354.3,20.3c1.2,0,2.4,1.2,2.1,3.7c0.8-2.7,2.3-3.7,5.1-3.7
		H372c3.1,0,6.3,1.2,7.9,4.1c1.5,3,1.4,5.3,0.6,9.6L377,52.2c-0.4,2.4-0.9,5.4,1.8,6.5h-15.6c-3-1-2.2-4.4-1.7-6.5l3.9-19.2
		c0.6-3,0-5.2-3.2-5.2h-3c-2,0-3.6,2.1-3.9,3.8L351,52.2c-0.6,2.7-0.5,5.5-3.7,6.5h-15.7c2.5-1.1,3-2.9,3.8-6.9l5.1-24.5
		c0.6-2.8,0.6-4.9-1.1-7H354.3L354.3,20.3z"/>
	<path class="st3" d="M2.5,58.6l15.5-0.1l-1.2,4.4c-0.8,2.6,1.4,3.8,3.5,3.8h4.4c5.2-0.1,7.4-5.8,8.1-9.1L44.5,4.4
		c0.3-1.5-0.2-2.8-0.6-3.8h20c-1.3,1.2-2.7,4.6-2.7,4.6L48.5,62.4c-1.5,6.9-8.7,13.1-14.3,13.1H10.7c-6.5,0-12.2-3.7-10.2-10.3
		L2.5,58.6L2.5,58.6z M83.3,40.4h-9.6c-1.5,0-3.1,0.7-3.5,2.5l-1.3,6c-0.2,1.3,0.7,2.3,2.2,2.3h7.8c1.1,0,2.2-1.1,2.5-2.3L83.3,40.4
		L83.3,40.4z M205.5,0.6c-1.8,0.7-2.4,3.2-2.4,3.2l-2,7.7c-0.5,2.2-1.5,3.5-3.3,3.6h-15c1.3-0.4,2.1-2.3,2.6-4l2-7.4
		c0.3-1.6,1.3-2.9,2.7-3.1H205.5L205.5,0.6z M173.6,58.6c2.9,0,3.9-3.7,4.5-6.3l5.2-25.1c0.1-0.9,0.5-5.1-1.5-7h15
		c2.7-0.1,3.1,2.8,2.8,4.8l-5.3,26.1c-0.9,4.3,0.9,6.3,3.1,7.5H173.6L173.6,58.6z M173.1,58.6c-2.5,0.1-1.9-4.4-1.5-6.5l4-18.5
		c1.1-5.1,0.1-7.8-1.5-10.2c-1.6-2.3-3.9-3.2-7.1-3.2h-11.4c-0.1,0-4.2,1.3-5.1,4.2c0.4-2.8-2.3-4.3-5.1-4.3l-15.4,0.1
		c-2.2,0-4.1,0.6-5.7,4.2c0.3-1.9-0.4-4.2-1.9-4.2h-15.2c2.2,1.6,1.6,6.3,1.6,6.3l-5.5,25c-0.4,2.1-2.1,7.1-4.6,7.1h15.7
		c3.6-0.1,4.1-4.7,4.5-6.5l4.3-20.2c0.6-2.6,1.8-4.2,4.3-4.2h3.9c3.2,0,2,5.3,2,5.3l-4.2,19.6c-0.2,1.4-1.3,5-3.8,6h20.9
		c-2.1-0.8-1.6-3.6-1.2-5.8l4.1-20.9c0.5-2.2,1.7-4.2,4-4.2h4.1c3.1,0,2.9,3,2.6,4.9l-4,20.1c0,0-1.2,5.9,2.9,5.9H173.1L173.1,58.6z
		 M97.9,58.6c-2.7,0-1.7-5.1-1.3-7.4l4.2-21.2c0.8-4.4-1.6-9.8-9.4-9.8H66.2c-1.7,0-4.4,0.1-4.9,2l-1.8,7.4c1.6-2,4.1-1.9,6.1-1.9
		h17.5c3.9,0,2.5,5.2-1.1,5.2H67.3c-4.4,0-8.6,2.1-9.8,7.5l-2.2,10.4c-0.8,3.8,1.8,7.9,6.7,7.9h12.6c2.9,0,5.4-1.2,6-3.7
		c0.2,1.9,1,3.7,2.6,3.7H97.9L97.9,58.6z M240,56c-0.7,1.9-2.6,2.7-5.3,2.7h-24.5c-6.2,0-10.8-5.3-9.4-12.1l3.5-17.4
		c1.1-5.7,4.7-8.9,10.1-8.9h22.3c6,0,9.8,5.4,8.9,9.8l-2.7,13.1h-26.1l-0.7,3.8c-0.1,1.1,0.9,4.2,4.7,4.2h15.6c3,0,4.5-0.7,5.5-1.8
		L240,56L240,56z M218.1,35.7h10.9l1.1-4.2c0.3-1.4-1.2-3.8-2.4-3.8H223c-1.8,0-3.6,1.3-4.1,3.8L218.1,35.7L218.1,35.7z M289.6,18.3
		L288,26c-0.4,2-4.6,1.8-6,1.8h-15.2c-0.1,0-2,0.9-2.2,2.5c-0.1,1.6,1.3,2,2.3,2h11.3c5.5,0,7.7,5.9,7.3,8.4l-2,10.1
		c-1.2,6.1-7.1,8-12.4,8H246c-2,0-3.3,0.9-4.6,2.1l1.9-7.2c0.5-1.9,2.7-2.4,4.6-2.4h18.3c1.5,0,2.6-1.7,2.7-2.7c0-1-0.3-2.8-1.9-2.8
		c-4.6,0-9.4,0-14,0c-3.5,0-6.2-4.1-5.3-8.5l1.7-8.1c1.2-5.8,4.1-8.9,10.9-8.9h22.3C285.1,20.3,288.2,20,289.6,18.3L289.6,18.3z
		 M305.1,20.3h19.4c8.3,0,10.8,6.3,9,14.4l-3.1,14.2c-1.7,7.5-5,9.8-12.9,9.8h-19c-7.2,0-12.2-3-10.2-12.6l3.5-16.8
		C293.3,22.3,298.6,20.3,305.1,20.3L305.1,20.3z M303.5,47c-0.4,1.8-0.2,4.2,2.5,4.2h5c1.9,0,3.4-0.5,3.9-2.8l3.6-15.7
		c0.6-2.7,0-4.9-3.9-4.9h-3.3c-1.7,0-3.9,2-4.2,3.8L303.5,47L303.5,47z M354.3,20.3c1.2,0,2.4,1.2,2.1,3.7c0.8-2.7,2.3-3.7,5.1-3.7
		H372c3.1,0,6.3,1.2,7.9,4.1c1.5,3,1.4,5.3,0.6,9.6L377,52.2c-0.4,2.4-0.9,5.4,1.8,6.5h-15.6c-3-1-2.2-4.4-1.7-6.5l3.9-19.2
		c0.6-3,0-5.2-3.2-5.2h-3c-2,0-3.6,2.1-3.9,3.8L351,52.2c-0.6,2.7-0.5,5.5-3.7,6.5h-15.7c2.5-1.1,3-2.9,3.8-6.9l5.1-24.5
		c0.6-2.8,0.6-4.9-1.1-7H354.3L354.3,20.3z"/>
</g>
</svg>
