<?xml version="1.0" encoding="UTF-8" standalone="no"?>
<svg width="107px" height="107px" viewBox="0 0 107 107" version="1.1" xmlns="http://www.w3.org/2000/svg" xmlns:xlink="http://www.w3.org/1999/xlink">
    <!-- Generator: Sketch 41.2 (35397) - http://www.bohemiancoding.com/sketch -->
    <title>Group 5</title>
    <desc>Created with Sketch.</desc>
    <defs>
        <circle id="path-1" cx="51.5" cy="51.5" r="51.5"></circle>
    </defs>
    <g id="Locations" stroke="none" stroke-width="1" fill="none" fill-rule="evenodd">
        <g id="Desktop-HD" transform="translate(-269.000000, -963.000000)">
            <g id="Group-5" transform="translate(271.000000, 965.000000)">
                <g id="Oval-Copy-10">
                    <use fill="#FFFFFF" xlink:href="#path-1"></use>
                    <use stroke="#EF3E42" stroke-width="3" fill-opacity="0.765879755" fill="#EF3E42" xlink:href="#path-1"></use>
                </g>
                <path d="M60.8571429,42 C60.8571429,39.1607001 59.8526886,36.7366172 57.84375,34.7276786 C55.8348114,32.71874 53.4107285,31.7142857 50.5714286,31.7142857 C47.7321287,31.7142857 45.3080458,32.71874 43.2991071,34.7276786 C41.2901685,36.7366172 40.2857143,39.1607001 40.2857143,42 C40.2857143,44.8392999 41.2901685,47.2633828 43.2991071,49.2723214 C45.3080458,51.28126 47.7321287,52.2857143 50.5714286,52.2857143 C53.4107285,52.2857143 55.8348114,51.28126 57.84375,49.2723214 C59.8526886,47.2633828 60.8571429,44.8392999 60.8571429,42 Z M71.1428571,42 C71.1428571,44.9196575 70.7008973,47.3169549 69.8169643,49.1919643 L55.1919643,80.2901786 C54.7633907,81.1741116 54.1272364,81.8705332 53.2834821,82.3794643 C52.4397279,82.8883954 51.5357191,83.1428571 50.5714286,83.1428571 C49.607138,83.1428571 48.7031292,82.8883954 47.859375,82.3794643 C47.0156208,81.8705332 46.3928592,81.1741116 45.9910714,80.2901786 L31.3258929,49.1919643 C30.4419599,47.3169549 30,44.9196575 30,42 C30,36.3214002 32.0089085,31.4732344 36.0267857,27.4553571 C40.0446629,23.4374799 44.8928287,21.4285714 50.5714286,21.4285714 C56.2500284,21.4285714 61.0981942,23.4374799 65.1160714,27.4553571 C69.1339487,31.4732344 71.1428571,36.3214002 71.1428571,42 Z" id="ï" stroke="#FFFFFF" stroke-width="2"></path>
            </g>
        </g>
    </g>
</svg>