<?xml version="1.0" encoding="UTF-8" standalone="no"?>
<svg width="40px" height="40px" viewBox="0 0 40 40" version="1.1" xmlns="http://www.w3.org/2000/svg" xmlns:xlink="http://www.w3.org/1999/xlink">
    <!-- Generator: Sketch 41.2 (35397) - http://www.bohemiancoding.com/sketch -->
    <title>Group</title>
    <desc>Created with Sketch.</desc>
    <defs>
        <rect id="path-1" x="0" y="0" width="40" height="40" rx="20"></rect>
        <mask id="mask-2" maskContentUnits="userSpaceOnUse" maskUnits="objectBoundingBox" x="0" y="0" width="40" height="40" fill="white">
            <use xlink:href="#path-1"></use>
        </mask>
    </defs>
    <g id="Reservations" stroke="none" stroke-width="1" fill="none" fill-rule="evenodd">
        <g id="Desktop-HD" transform="translate(-463.000000, -515.000000)">
            <g id="Group-6" transform="translate(463.000000, 515.000000)">
                <g id="Group">
                    <g id="RedButton" stroke="#EF3E42" stroke-width="4" fill="#EF3E42" fill-opacity="0.7">
                        <use id="Rectangle-3-Copy" mask="url(#mask-2)" xlink:href="#path-1"></use>
                    </g>
                    <path d="M15.7533482,27.0625 L16.8705357,25.9453125 L13.9854911,23.0602679 L12.8683036,24.1774554 L12.8683036,25.4910714 L14.4397321,25.4910714 L14.4397321,27.0625 L15.7533482,27.0625 Z M22.1741071,15.6696429 C22.1741071,15.4895824 22.0840783,15.3995536 21.9040179,15.3995536 C21.8221722,15.3995536 21.7526045,15.4281991 21.6953125,15.4854911 L15.0412946,22.1395089 C14.9840027,22.1968009 14.9553571,22.2663686 14.9553571,22.3482143 C14.9553571,22.5282747 15.045386,22.6183036 15.2254464,22.6183036 C15.3072921,22.6183036 15.3768598,22.589658 15.4341518,22.5323661 L22.0881696,15.8783482 C22.1454616,15.8210563 22.1741071,15.7514885 22.1741071,15.6696429 Z M21.5111607,13.3125 L26.6183036,18.4196429 L16.4040179,28.6339286 L11.296875,28.6339286 L11.296875,23.5267857 L21.5111607,13.3125 Z M29.8962054,14.4910714 C29.8962054,14.9248534 29.7447932,15.2931532 29.4419643,15.5959821 L27.4040179,17.6339286 L22.296875,12.5267857 L24.3348214,10.5011161 C24.6294658,10.1901026 24.9977656,10.0345982 25.4397321,10.0345982 C25.8735141,10.0345982 26.2459062,10.1901026 26.5569196,10.5011161 L29.4419643,13.3738839 C29.7447932,13.693082 29.8962054,14.0654741 29.8962054,14.4910714 Z" id="ï€" fill="#F4F4F4"></path>
                </g>
            </g>
        </g>
    </g>
</svg>