<?xml version="1.0" encoding="utf-8"?>
<!-- Generator: Adobe Illustrator 20.0.0, SVG Export Plug-In . SVG Version: 6.00 Build 0)  -->
<svg version="1.1" id="Layer_1" xmlns="http://www.w3.org/2000/svg" xmlns:xlink="http://www.w3.org/1999/xlink" x="0px" y="0px"
	 viewBox="0 0 360.5 317.5" style="enable-background:new 0 0 360.5 317.5;" xml:space="preserve">
<style type="text/css">
	.st0{opacity:0.47;fill:#EF4043;}
	.st1{fill:#EF4043;}
</style>
<g>
	<path class="st0" d="M36.5,40.8c0-6.7,1.3-13.1,3.7-19H0v38h40.2C37.8,53.9,36.5,47.5,36.5,40.8z"/>
	<path class="st1" d="M134.3,21.8c2.4,5.9,3.7,12.3,3.7,19s-1.3,13.1-3.7,19h226.2v-38H134.3z"/>
</g>
<g>
	<path class="st1" d="M224.5,158.8c0-6.7,1.3-13.1,3.7-19H0v38h228.2C225.8,171.9,224.5,165.5,224.5,158.8z"/>
	<path class="st0" d="M322.3,139.8c2.4,5.9,3.7,12.3,3.7,19c0,6.7-1.3,13.1-3.7,19h38.2v-38H322.3z"/>
</g>
<g>
	<g>
		<path class="st1" d="M134.3,257.8c2.4,5.9,3.7,12.3,3.7,19c0,6.7-1.3,13.1-3.7,19h226.2v-38H134.3z"/>
		<path class="st0" d="M36.5,276.8c0-6.7,1.3-13.1,3.7-19H0v38h40.2C37.8,289.9,36.5,283.5,36.5,276.8z"/>
	</g>
</g>
<circle class="st1" cx="87.2" cy="40.8" r="40.8"/>
<circle class="st1" cx="87.2" cy="276.8" r="40.8"/>
<circle class="st1" cx="275.2" cy="158.8" r="40.8"/>
</svg>
