<?xml version="1.0" encoding="UTF-8" standalone="no"?>
<svg width="74px" height="74px" viewBox="0 0 74 74" version="1.1" xmlns="http://www.w3.org/2000/svg" xmlns:xlink="http://www.w3.org/1999/xlink">
    <!-- Generator: Sketch 41.2 (35397) - http://www.bohemiancoding.com/sketch -->
    <title>Group 4</title>
    <desc>Created with Sketch.</desc>
    <defs></defs>
    <g id="Helpful-Tips" stroke="none" stroke-width="1" fill="none" fill-rule="evenodd">
        <g id="Desktop-HD" transform="translate(-598.000000, -1718.000000)">
            <g id="Group-3-Copy" transform="translate(599.000000, 1716.000000)">
                <g id="Group-2" transform="translate(0.000000, 3.000000)">
                    <g id="Group-4">
                        <g id="Group-2-Copy-2" stroke="#231F20" stroke-opacity="0.85" stroke-width="2" fill="#231F20" fill-opacity="0.7">
                            <circle id="Oval-Copy" cx="36" cy="36" r="36"></circle>
                        </g>
                        <path d="M26.7142857,47.8571429 C26.7142857,47.0059481 26.4032769,46.2693483 25.78125,45.6473214 C25.1592231,45.0252945 24.4226233,44.7142857 23.5714286,44.7142857 C22.7202338,44.7142857 21.9836341,45.0252945 21.3616071,45.6473214 C20.7395802,46.2693483 20.4285714,47.0059481 20.4285714,47.8571429 C20.4285714,48.7083376 20.7395802,49.4449374 21.3616071,50.0669643 C21.9836341,50.6889912 22.7202338,51 23.5714286,51 C24.4226233,51 25.1592231,50.6889912 25.78125,50.0669643 C26.4032769,49.4449374 26.7142857,48.7083376 26.7142857,47.8571429 Z M17.2857143,35.2857143 L26.7142857,35.2857143 L26.7142857,29 L22.8348214,29 C22.6220227,29 22.441965,29.07366 22.2946429,29.2209821 L17.5066964,34.0089286 C17.3593743,34.1562507 17.2857143,34.3363085 17.2857143,34.5491071 L17.2857143,35.2857143 Z M48.7142857,47.8571429 C48.7142857,47.0059481 48.4032769,46.2693483 47.78125,45.6473214 C47.1592231,45.0252945 46.4226233,44.7142857 45.5714286,44.7142857 C44.7202338,44.7142857 43.9836341,45.0252945 43.3616071,45.6473214 C42.7395802,46.2693483 42.4285714,47.0059481 42.4285714,47.8571429 C42.4285714,48.7083376 42.7395802,49.4449374 43.3616071,50.0669643 C43.9836341,50.6889912 44.7202338,51 45.5714286,51 C46.4226233,51 47.1592231,50.6889912 47.78125,50.0669643 C48.4032769,49.4449374 48.7142857,48.7083376 48.7142857,47.8571429 Z M55,21.1428571 L55,46.2857143 C55,46.5312512 54.9672622,46.7481389 54.9017857,46.9363839 C54.8363092,47.1246289 54.7258192,47.2760411 54.5703125,47.390625 C54.4148058,47.5052089 54.2797625,47.59933 54.1651786,47.6729911 C54.0505947,47.7466522 53.8582603,47.7957588 53.5881696,47.8203125 C53.318079,47.8448662 53.1339291,47.8612351 53.0357143,47.8694196 C52.9374995,47.8776042 52.7287962,47.8776042 52.4095982,47.8694196 C52.0904002,47.8612351 51.9062502,47.8571429 51.8571429,47.8571429 C51.8571429,49.5922706 51.2433097,51.0736546 50.015625,52.3013393 C48.7879403,53.529024 47.3065563,54.1428571 45.5714286,54.1428571 C43.8363008,54.1428571 42.3549169,53.529024 41.1272321,52.3013393 C39.8995474,51.0736546 39.2857143,49.5922706 39.2857143,47.8571429 L29.8571429,47.8571429 C29.8571429,49.5922706 29.2433097,51.0736546 28.015625,52.3013393 C26.7879403,53.529024 25.3065563,54.1428571 23.5714286,54.1428571 C21.8363008,54.1428571 20.3549169,53.529024 19.1272321,52.3013393 C17.8995474,51.0736546 17.2857143,49.5922706 17.2857143,47.8571429 L15.7142857,47.8571429 C15.6651783,47.8571429 15.4810284,47.8612351 15.1618304,47.8694196 C14.8426323,47.8776042 14.6339291,47.8776042 14.5357143,47.8694196 C14.4374995,47.8612351 14.2533496,47.8448662 13.9832589,47.8203125 C13.7131683,47.7957588 13.5208339,47.7466522 13.40625,47.6729911 C13.2916661,47.59933 13.1566228,47.5052089 13.0011161,47.390625 C12.8456093,47.2760411 12.7351194,47.1246289 12.6696429,46.9363839 C12.6041663,46.7481389 12.5714286,46.5312512 12.5714286,46.2857143 C12.5714286,45.8601169 12.726933,45.491817 13.0379464,45.1808036 C13.3489599,44.8697901 13.7172598,44.7142857 14.1428571,44.7142857 L14.1428571,36.8571429 C14.1428571,36.7261898 14.1387649,36.4397344 14.1305804,35.9977679 C14.1223958,35.5558014 14.1223958,35.2447926 14.1305804,35.0647321 C14.1387649,34.8846717 14.159226,34.6023085 14.1919643,34.2176339 C14.2247025,33.8329594 14.2779014,33.530135 14.3515625,33.3091518 C14.4252236,33.0881685 14.5398058,32.8385431 14.6953125,32.5602679 C14.8508192,32.2819927 15.0349692,32.0364594 15.2477679,31.8236607 L20.109375,26.9620536 C20.4203885,26.6510401 20.8337028,26.389138 21.3493304,26.1763393 C21.8649579,25.9635406 22.3437478,25.8571429 22.7857143,25.8571429 L26.7142857,25.8571429 L26.7142857,21.1428571 C26.7142857,20.7172598 26.8697901,20.3489599 27.1808036,20.0379464 C27.491817,19.726933 27.8601169,19.5714286 28.2857143,19.5714286 L53.4285714,19.5714286 C53.8541688,19.5714286 54.2224687,19.726933 54.5334821,20.0379464 C54.8444956,20.3489599 55,20.7172598 55,21.1428571 Z" id="" fill="#EF3E42"></path>
                    </g>
                </g>
            </g>
        </g>
    </g>
</svg>